<?xml version="1.0" encoding="utf-8" standalone="no"?>
<!DOCTYPE svg PUBLIC "-//W3C//DTD SVG 1.1//EN"
  "http://www.w3.org/Graphics/SVG/1.1/DTD/svg11.dtd">
<svg xmlns:xlink="http://www.w3.org/1999/xlink" width="324.667781pt" height="330.404812pt" viewBox="0 0 324.667781 330.404812" xmlns="http://www.w3.org/2000/svg" version="1.1">
 <metadata>
  <rdf:RDF xmlns:dc="http://purl.org/dc/elements/1.1/" xmlns:cc="http://creativecommons.org/ns#" xmlns:rdf="http://www.w3.org/1999/02/22-rdf-syntax-ns#">
   <cc:Work>
    <dc:type rdf:resource="http://purl.org/dc/dcmitype/StillImage"/>
    <dc:date>2023-09-08T12:21:51.161964</dc:date>
    <dc:format>image/svg+xml</dc:format>
    <dc:creator>
     <cc:Agent>
      <dc:title>Matplotlib v3.7.1, https://matplotlib.org/</dc:title>
     </cc:Agent>
    </dc:creator>
   </cc:Work>
  </rdf:RDF>
 </metadata>
 <defs>
  <style type="text/css">*{stroke-linejoin: round; stroke-linecap: butt}</style>
 </defs>
 <g id="figure_1">
  <g id="patch_1">
   <path d="M 0 330.404812 
L 324.667781 330.404812 
L 324.667781 0 
L 0 0 
z
" style="fill: #ffffff"/>
  </g>
  <g id="axes_1">
   <g id="patch_2">
    <path d="M 295.915984 172.761469 
C 295.915984 155.288715 292.474233 137.985862 285.787699 121.843142 
C 279.101166 105.700422 269.299887 91.031772 256.944784 78.676669 
C 244.589682 66.321566 229.921031 56.520287 213.778311 49.833754 
C 197.635592 43.14722 180.332738 39.705469 162.859984 39.705469 
C 145.387231 39.705469 128.084377 43.14722 111.941658 49.833754 
C 95.798938 56.520287 81.130287 66.321566 68.775184 78.676669 
C 56.420082 91.031772 46.618803 105.700422 39.932269 121.843142 
C 33.245736 137.985862 29.803984 155.288715 29.803984 172.761469 
C 29.803984 190.234223 33.245736 207.537076 39.932269 223.679796 
C 46.618803 239.822515 56.420082 254.491166 68.775184 266.846269 
C 81.130287 279.201371 95.798938 289.00265 111.941658 295.689184 
C 128.084377 302.375717 145.387231 305.817469 162.859984 305.817469 
C 180.332738 305.817469 197.635592 302.375717 213.778311 295.689184 
C 229.921031 289.00265 244.589682 279.201371 256.944784 266.846269 
C 269.299887 254.491166 279.101166 239.822515 285.787699 223.679796 
C 292.474233 207.537076 295.915984 190.234223 295.915984 172.761469 
M 224.645914 172.761469 
C 224.645914 180.875123 223.047701 188.909882 219.94274 196.40592 
C 216.837779 203.901959 212.286454 210.713499 206.549234 216.450719 
C 200.812015 222.187938 194.000475 226.739264 186.504436 229.844225 
C 179.008397 232.949186 170.973638 234.547399 162.859984 234.547399 
C 154.74633 234.547399 146.711571 232.949186 139.215533 229.844225 
C 131.719494 226.739264 124.907954 222.187938 119.170734 216.450719 
C 113.433515 210.713499 108.882189 203.901959 105.777228 196.40592 
C 102.672267 188.909882 101.074054 180.875123 101.074054 172.761469 
C 101.074054 164.647815 102.672267 156.613056 105.777228 149.117017 
C 108.882189 141.620978 113.433515 134.809438 119.170734 129.072219 
C 124.907954 123.334999 131.719494 118.783674 139.215533 115.678713 
C 146.711571 112.573752 154.74633 110.975539 162.859984 110.975539 
C 170.973638 110.975539 179.008397 112.573752 186.504436 115.678713 
C 194.000475 118.783674 200.812015 123.334999 206.549234 129.072219 
C 212.286454 134.809438 216.837779 141.620978 219.94274 149.117017 
C 223.047701 156.613056 224.645914 164.647815 224.645914 172.761469 
z
" style="fill: #ffffff"/>
   </g>
   <g id="patch_3">
    <path d="M 222.54061 156.770093 
C 223.93811 161.985636 224.645914 167.361942 224.645914 172.761469 
C 224.645914 178.160996 223.93811 183.537302 222.54061 188.752844 
L 262.611887 199.48991 
C 264.947709 190.772504 266.130753 181.786392 266.130753 172.761469 
C 266.130753 163.736545 264.947709 154.750434 262.611887 146.033027 
z
" clip-path="url(#p4e712fda52)" style="fill: #84ff00; opacity: 0.5"/>
   </g>
   <g id="patch_4">
    <path d="M 146.868609 113.080843 
C 152.084151 111.683343 157.460458 110.975539 162.859984 110.975539 
C 168.259511 110.975539 173.635817 111.683343 178.85136 113.080843 
L 190.38038 70.053954 
C 181.40468 67.648923 172.152313 66.430826 162.859984 66.430826 
C 153.567656 66.430826 144.315289 67.648923 135.339589 70.053954 
z
" clip-path="url(#p4e712fda52)" style="fill: #ff0000; opacity: 0.5"/>
   </g>
   <g id="patch_5">
    <path d="M 193.752949 119.253284 
C 198.429077 121.953047 202.731192 125.254177 206.549234 129.072219 
C 210.367276 132.890261 213.668406 137.192376 216.368169 141.868504 
L 275.150732 107.930375 
C 269.485086 98.117188 262.55743 89.088891 254.544996 81.076457 
C 246.532562 73.064023 237.504265 66.136367 227.691078 60.470721 
z
" clip-path="url(#p4e712fda52)" style="fill: #ffbd00; opacity: 0.5"/>
   </g>
   <g id="patch_6">
    <path d="M 109.3518 141.868504 
C 112.051563 137.192376 115.352692 132.890261 119.170734 129.072219 
C 122.988776 125.254177 127.290892 121.953047 131.967019 119.253284 
L 125.05288 107.277642 
C 119.33019 110.581639 114.06522 114.621592 109.392664 119.294149 
C 104.720108 123.966705 100.680154 129.231675 97.376158 134.954364 
z
" clip-path="url(#p4e712fda52)" style="fill: #ff00cf; opacity: 0.5"/>
   </g>
   <g id="patch_7">
    <path d="M 178.85136 232.442094 
C 173.635817 233.839595 168.259511 234.547399 162.859984 234.547399 
C 157.460458 234.547399 152.084151 233.839595 146.868609 232.442094 
L 144.210995 242.360446 
C 150.293311 243.990197 156.563108 244.815632 162.859984 244.815632 
C 169.156861 244.815632 175.426658 243.990197 181.508974 242.360446 
z
" clip-path="url(#p4e712fda52)" style="fill: #00fff6; opacity: 0.5"/>
   </g>
   <g id="patch_8">
    <path d="M 216.368169 203.654434 
C 213.668406 208.330561 210.367276 212.632677 206.549234 216.450719 
C 202.731192 220.268761 198.429077 223.56989 193.752949 226.269654 
L 201.270237 239.289979 
C 207.084223 235.933273 212.433186 231.828869 217.180285 227.08177 
C 221.927384 222.334671 226.031788 216.985707 229.388494 211.171722 
z
" clip-path="url(#p4e712fda52)" style="fill: #00ff39; opacity: 0.5"/>
   </g>
   <g id="patch_9">
    <path d="M 131.967019 226.269654 
C 127.290892 223.56989 122.988776 220.268761 119.170734 216.450719 
C 115.352692 212.632677 112.051563 208.330561 109.3518 203.654434 
L 104.765384 206.302402 
C 107.696555 211.37934 111.280639 216.050209 115.425942 220.195512 
C 119.571244 224.340814 124.242113 227.924898 129.319051 230.856069 
z
" clip-path="url(#p4e712fda52)" style="fill: #004bff; opacity: 0.5"/>
   </g>
   <g id="patch_10">
    <path d="M 103.179359 188.752844 
C 101.781859 183.537302 101.074054 178.160996 101.074054 172.761469 
C 101.074054 167.361942 101.781859 161.985636 103.179359 156.770093 
L 94.596717 154.470381 
C 92.998242 160.435968 92.188649 166.585438 92.188649 172.761469 
C 92.188649 178.937499 92.998242 185.086969 94.596717 191.052556 
z
" clip-path="url(#p4e712fda52)" style="fill: #7200ff; opacity: 0.5"/>
   </g>
   <g id="matplotlib.axis_1">
    <g id="xtick_1">
     <g id="line2d_1">
      <path d="M 224.645914 172.761469 
L 295.915984 172.761469 
" clip-path="url(#p4e712fda52)" style="fill: none; stroke: #b0b0b0; stroke-width: 0.8; stroke-linecap: square"/>
     </g>
     <g id="text_1">
      <!-- East -->
      <g transform="translate(302.364187 174.693031) scale(0.07 -0.07)">
       <defs>
        <path id="DejaVuSans-45" d="M 628 4666 
L 3578 4666 
L 3578 4134 
L 1259 4134 
L 1259 2753 
L 3481 2753 
L 3481 2222 
L 1259 2222 
L 1259 531 
L 3634 531 
L 3634 0 
L 628 0 
L 628 4666 
z
" transform="scale(0.015625)"/>
        <path id="DejaVuSans-61" d="M 2194 1759 
Q 1497 1759 1228 1600 
Q 959 1441 959 1056 
Q 959 750 1161 570 
Q 1363 391 1709 391 
Q 2188 391 2477 730 
Q 2766 1069 2766 1631 
L 2766 1759 
L 2194 1759 
z
M 3341 1997 
L 3341 0 
L 2766 0 
L 2766 531 
Q 2569 213 2275 61 
Q 1981 -91 1556 -91 
Q 1019 -91 701 211 
Q 384 513 384 1019 
Q 384 1609 779 1909 
Q 1175 2209 1959 2209 
L 2766 2209 
L 2766 2266 
Q 2766 2663 2505 2880 
Q 2244 3097 1772 3097 
Q 1472 3097 1187 3025 
Q 903 2953 641 2809 
L 641 3341 
Q 956 3463 1253 3523 
Q 1550 3584 1831 3584 
Q 2591 3584 2966 3190 
Q 3341 2797 3341 1997 
z
" transform="scale(0.015625)"/>
        <path id="DejaVuSans-73" d="M 2834 3397 
L 2834 2853 
Q 2591 2978 2328 3040 
Q 2066 3103 1784 3103 
Q 1356 3103 1142 2972 
Q 928 2841 928 2578 
Q 928 2378 1081 2264 
Q 1234 2150 1697 2047 
L 1894 2003 
Q 2506 1872 2764 1633 
Q 3022 1394 3022 966 
Q 3022 478 2636 193 
Q 2250 -91 1575 -91 
Q 1294 -91 989 -36 
Q 684 19 347 128 
L 347 722 
Q 666 556 975 473 
Q 1284 391 1588 391 
Q 1994 391 2212 530 
Q 2431 669 2431 922 
Q 2431 1156 2273 1281 
Q 2116 1406 1581 1522 
L 1381 1569 
Q 847 1681 609 1914 
Q 372 2147 372 2553 
Q 372 3047 722 3315 
Q 1072 3584 1716 3584 
Q 2034 3584 2315 3537 
Q 2597 3491 2834 3397 
z
" transform="scale(0.015625)"/>
        <path id="DejaVuSans-74" d="M 1172 4494 
L 1172 3500 
L 2356 3500 
L 2356 3053 
L 1172 3053 
L 1172 1153 
Q 1172 725 1289 603 
Q 1406 481 1766 481 
L 2356 481 
L 2356 0 
L 1766 0 
Q 1100 0 847 248 
Q 594 497 594 1153 
L 594 3053 
L 172 3053 
L 172 3500 
L 594 3500 
L 594 4494 
L 1172 4494 
z
" transform="scale(0.015625)"/>
       </defs>
       <use xlink:href="#DejaVuSans-45"/>
       <use xlink:href="#DejaVuSans-61" x="63.183594"/>
       <use xlink:href="#DejaVuSans-73" x="124.462891"/>
       <use xlink:href="#DejaVuSans-74" x="176.5625"/>
      </g>
     </g>
    </g>
    <g id="xtick_2">
     <g id="line2d_2">
      <path d="M 162.859984 110.975539 
L 162.859984 39.705469 
" clip-path="url(#p4e712fda52)" style="fill: none; stroke: #b0b0b0; stroke-width: 0.8; stroke-linecap: square"/>
     </g>
     <g id="text_2">
      <!-- North -->
      <g transform="translate(153.070922 27.637031) scale(0.07 -0.07)">
       <defs>
        <path id="DejaVuSans-4e" d="M 628 4666 
L 1478 4666 
L 3547 763 
L 3547 4666 
L 4159 4666 
L 4159 0 
L 3309 0 
L 1241 3903 
L 1241 0 
L 628 0 
L 628 4666 
z
" transform="scale(0.015625)"/>
        <path id="DejaVuSans-6f" d="M 1959 3097 
Q 1497 3097 1228 2736 
Q 959 2375 959 1747 
Q 959 1119 1226 758 
Q 1494 397 1959 397 
Q 2419 397 2687 759 
Q 2956 1122 2956 1747 
Q 2956 2369 2687 2733 
Q 2419 3097 1959 3097 
z
M 1959 3584 
Q 2709 3584 3137 3096 
Q 3566 2609 3566 1747 
Q 3566 888 3137 398 
Q 2709 -91 1959 -91 
Q 1206 -91 779 398 
Q 353 888 353 1747 
Q 353 2609 779 3096 
Q 1206 3584 1959 3584 
z
" transform="scale(0.015625)"/>
        <path id="DejaVuSans-72" d="M 2631 2963 
Q 2534 3019 2420 3045 
Q 2306 3072 2169 3072 
Q 1681 3072 1420 2755 
Q 1159 2438 1159 1844 
L 1159 0 
L 581 0 
L 581 3500 
L 1159 3500 
L 1159 2956 
Q 1341 3275 1631 3429 
Q 1922 3584 2338 3584 
Q 2397 3584 2469 3576 
Q 2541 3569 2628 3553 
L 2631 2963 
z
" transform="scale(0.015625)"/>
        <path id="DejaVuSans-68" d="M 3513 2113 
L 3513 0 
L 2938 0 
L 2938 2094 
Q 2938 2591 2744 2837 
Q 2550 3084 2163 3084 
Q 1697 3084 1428 2787 
Q 1159 2491 1159 1978 
L 1159 0 
L 581 0 
L 581 4863 
L 1159 4863 
L 1159 2956 
Q 1366 3272 1645 3428 
Q 1925 3584 2291 3584 
Q 2894 3584 3203 3211 
Q 3513 2838 3513 2113 
z
" transform="scale(0.015625)"/>
       </defs>
       <use xlink:href="#DejaVuSans-4e"/>
       <use xlink:href="#DejaVuSans-6f" x="74.804688"/>
       <use xlink:href="#DejaVuSans-72" x="135.986328"/>
       <use xlink:href="#DejaVuSans-74" x="177.099609"/>
       <use xlink:href="#DejaVuSans-68" x="216.308594"/>
      </g>
     </g>
    </g>
    <g id="xtick_3">
     <g id="line2d_3">
      <path d="M 206.549234 129.072219 
L 256.944784 78.676669 
" clip-path="url(#p4e712fda52)" style="fill: none; stroke: #b0b0b0; stroke-width: 0.8; stroke-linecap: square"/>
     </g>
     <g id="text_3">
      <!-- Northeast -->
      <g transform="translate(249.561389 70.708736) scale(0.07 -0.07)">
       <defs>
        <path id="DejaVuSans-65" d="M 3597 1894 
L 3597 1613 
L 953 1613 
Q 991 1019 1311 708 
Q 1631 397 2203 397 
Q 2534 397 2845 478 
Q 3156 559 3463 722 
L 3463 178 
Q 3153 47 2828 -22 
Q 2503 -91 2169 -91 
Q 1331 -91 842 396 
Q 353 884 353 1716 
Q 353 2575 817 3079 
Q 1281 3584 2069 3584 
Q 2775 3584 3186 3129 
Q 3597 2675 3597 1894 
z
M 3022 2063 
Q 3016 2534 2758 2815 
Q 2500 3097 2075 3097 
Q 1594 3097 1305 2825 
Q 1016 2553 972 2059 
L 3022 2063 
z
" transform="scale(0.015625)"/>
       </defs>
       <use xlink:href="#DejaVuSans-4e"/>
       <use xlink:href="#DejaVuSans-6f" x="74.804688"/>
       <use xlink:href="#DejaVuSans-72" x="135.986328"/>
       <use xlink:href="#DejaVuSans-74" x="177.099609"/>
       <use xlink:href="#DejaVuSans-68" x="216.308594"/>
       <use xlink:href="#DejaVuSans-65" x="279.6875"/>
       <use xlink:href="#DejaVuSans-61" x="341.210938"/>
       <use xlink:href="#DejaVuSans-73" x="402.490234"/>
       <use xlink:href="#DejaVuSans-74" x="454.589844"/>
      </g>
     </g>
    </g>
    <g id="xtick_4">
     <g id="line2d_4">
      <path d="M 119.170734 129.072219 
L 68.775184 78.676669 
" clip-path="url(#p4e712fda52)" style="fill: none; stroke: #b0b0b0; stroke-width: 0.8; stroke-linecap: square"/>
     </g>
     <g id="text_4">
      <!-- Northwest -->
      <g transform="translate(40.875299 70.708736) scale(0.07 -0.07)">
       <defs>
        <path id="DejaVuSans-77" d="M 269 3500 
L 844 3500 
L 1563 769 
L 2278 3500 
L 2956 3500 
L 3675 769 
L 4391 3500 
L 4966 3500 
L 4050 0 
L 3372 0 
L 2619 2869 
L 1863 0 
L 1184 0 
L 269 3500 
z
" transform="scale(0.015625)"/>
       </defs>
       <use xlink:href="#DejaVuSans-4e"/>
       <use xlink:href="#DejaVuSans-6f" x="74.804688"/>
       <use xlink:href="#DejaVuSans-72" x="135.986328"/>
       <use xlink:href="#DejaVuSans-74" x="177.099609"/>
       <use xlink:href="#DejaVuSans-68" x="216.308594"/>
       <use xlink:href="#DejaVuSans-77" x="279.6875"/>
       <use xlink:href="#DejaVuSans-65" x="361.474609"/>
       <use xlink:href="#DejaVuSans-73" x="422.998047"/>
       <use xlink:href="#DejaVuSans-74" x="475.097656"/>
      </g>
     </g>
    </g>
    <g id="xtick_5">
     <g id="line2d_5">
      <path d="M 162.859984 234.547399 
L 162.859984 305.817469 
" clip-path="url(#p4e712fda52)" style="fill: none; stroke: #b0b0b0; stroke-width: 0.8; stroke-linecap: square"/>
     </g>
     <g id="text_5">
      <!-- South -->
      <g transform="translate(152.688109 321.749031) scale(0.07 -0.07)">
       <defs>
        <path id="DejaVuSans-53" d="M 3425 4513 
L 3425 3897 
Q 3066 4069 2747 4153 
Q 2428 4238 2131 4238 
Q 1616 4238 1336 4038 
Q 1056 3838 1056 3469 
Q 1056 3159 1242 3001 
Q 1428 2844 1947 2747 
L 2328 2669 
Q 3034 2534 3370 2195 
Q 3706 1856 3706 1288 
Q 3706 609 3251 259 
Q 2797 -91 1919 -91 
Q 1588 -91 1214 -16 
Q 841 59 441 206 
L 441 856 
Q 825 641 1194 531 
Q 1563 422 1919 422 
Q 2459 422 2753 634 
Q 3047 847 3047 1241 
Q 3047 1584 2836 1778 
Q 2625 1972 2144 2069 
L 1759 2144 
Q 1053 2284 737 2584 
Q 422 2884 422 3419 
Q 422 4038 858 4394 
Q 1294 4750 2059 4750 
Q 2388 4750 2728 4690 
Q 3069 4631 3425 4513 
z
" transform="scale(0.015625)"/>
        <path id="DejaVuSans-75" d="M 544 1381 
L 544 3500 
L 1119 3500 
L 1119 1403 
Q 1119 906 1312 657 
Q 1506 409 1894 409 
Q 2359 409 2629 706 
Q 2900 1003 2900 1516 
L 2900 3500 
L 3475 3500 
L 3475 0 
L 2900 0 
L 2900 538 
Q 2691 219 2414 64 
Q 2138 -91 1772 -91 
Q 1169 -91 856 284 
Q 544 659 544 1381 
z
M 1991 3584 
L 1991 3584 
z
" transform="scale(0.015625)"/>
       </defs>
       <use xlink:href="#DejaVuSans-53"/>
       <use xlink:href="#DejaVuSans-6f" x="63.476562"/>
       <use xlink:href="#DejaVuSans-75" x="124.658203"/>
       <use xlink:href="#DejaVuSans-74" x="188.037109"/>
       <use xlink:href="#DejaVuSans-68" x="227.246094"/>
      </g>
     </g>
    </g>
    <g id="xtick_6">
     <g id="line2d_6">
      <path d="M 206.549234 216.450719 
L 256.944784 266.846269 
" clip-path="url(#p4e712fda52)" style="fill: none; stroke: #b0b0b0; stroke-width: 0.8; stroke-linecap: square"/>
     </g>
     <g id="text_6">
      <!-- Southeast -->
      <g transform="translate(249.178576 278.677326) scale(0.07 -0.07)">
       <use xlink:href="#DejaVuSans-53"/>
       <use xlink:href="#DejaVuSans-6f" x="63.476562"/>
       <use xlink:href="#DejaVuSans-75" x="124.658203"/>
       <use xlink:href="#DejaVuSans-74" x="188.037109"/>
       <use xlink:href="#DejaVuSans-68" x="227.246094"/>
       <use xlink:href="#DejaVuSans-65" x="290.625"/>
       <use xlink:href="#DejaVuSans-61" x="352.148438"/>
       <use xlink:href="#DejaVuSans-73" x="413.427734"/>
       <use xlink:href="#DejaVuSans-74" x="465.527344"/>
      </g>
     </g>
    </g>
    <g id="xtick_7">
     <g id="line2d_7">
      <path d="M 119.170734 216.450719 
L 68.775184 266.846269 
" clip-path="url(#p4e712fda52)" style="fill: none; stroke: #b0b0b0; stroke-width: 0.8; stroke-linecap: square"/>
     </g>
     <g id="text_7">
      <!-- Southwest -->
      <g transform="translate(40.492486 278.677326) scale(0.07 -0.07)">
       <use xlink:href="#DejaVuSans-53"/>
       <use xlink:href="#DejaVuSans-6f" x="63.476562"/>
       <use xlink:href="#DejaVuSans-75" x="124.658203"/>
       <use xlink:href="#DejaVuSans-74" x="188.037109"/>
       <use xlink:href="#DejaVuSans-68" x="227.246094"/>
       <use xlink:href="#DejaVuSans-77" x="290.625"/>
       <use xlink:href="#DejaVuSans-65" x="372.412109"/>
       <use xlink:href="#DejaVuSans-73" x="433.935547"/>
       <use xlink:href="#DejaVuSans-74" x="486.035156"/>
      </g>
     </g>
    </g>
    <g id="xtick_8">
     <g id="line2d_8">
      <path d="M 101.074054 172.761469 
L 29.803984 172.761469 
" clip-path="url(#p4e712fda52)" style="fill: none; stroke: #b0b0b0; stroke-width: 0.8; stroke-linecap: square"/>
     </g>
     <g id="text_8">
      <!-- West -->
      <g transform="translate(7.2 174.693031) scale(0.07 -0.07)">
       <defs>
        <path id="DejaVuSans-57" d="M 213 4666 
L 850 4666 
L 1831 722 
L 2809 4666 
L 3519 4666 
L 4500 722 
L 5478 4666 
L 6119 4666 
L 4947 0 
L 4153 0 
L 3169 4050 
L 2175 0 
L 1381 0 
L 213 4666 
z
" transform="scale(0.015625)"/>
       </defs>
       <use xlink:href="#DejaVuSans-57"/>
       <use xlink:href="#DejaVuSans-65" x="93.001953"/>
       <use xlink:href="#DejaVuSans-73" x="154.525391"/>
       <use xlink:href="#DejaVuSans-74" x="206.625"/>
      </g>
     </g>
    </g>
   </g>
   <g id="matplotlib.axis_2">
    <g id="ytick_1">
     <g id="line2d_9">
      <path d="M 162.859984 110.975539 
C 170.973638 110.975539 179.008397 112.573752 186.504436 115.678713 
C 194.000475 118.783674 200.812015 123.334999 206.549234 129.072219 
C 212.286454 134.809438 216.837779 141.620978 219.94274 149.117017 
C 223.047701 156.613056 224.645914 164.647815 224.645914 172.761469 
C 224.645914 180.875123 223.047701 188.909882 219.94274 196.40592 
C 216.837779 203.901959 212.286454 210.713499 206.549234 216.450719 
C 200.812015 222.187938 194.000475 226.739264 186.504436 229.844225 
C 179.008397 232.949186 170.973638 234.547399 162.859984 234.547399 
C 154.74633 234.547399 146.711571 232.949186 139.215533 229.844225 
C 131.719494 226.739264 124.907954 222.187938 119.170734 216.450719 
C 113.433515 210.713499 108.882189 203.901959 105.777228 196.40592 
C 102.672267 188.909882 101.074054 180.875123 101.074054 172.761469 
C 101.074054 164.647815 102.672267 156.613056 105.777228 149.117017 
C 108.882189 141.620978 113.433515 134.809438 119.170734 129.072219 
C 124.907954 123.334999 131.719494 118.783674 139.215533 115.678713 
C 146.711571 112.573752 154.74633 110.975539 162.859984 110.975539 
" clip-path="url(#p4e712fda52)" style="fill: none; stroke: #b0b0b0; stroke-width: 0.8; stroke-linecap: square"/>
     </g>
     <g id="text_9">
      <!-- 0 -->
      <g transform="translate(106.862915 197.41755) scale(0.07 -0.07)">
       <defs>
        <path id="DejaVuSans-30" d="M 2034 4250 
Q 1547 4250 1301 3770 
Q 1056 3291 1056 2328 
Q 1056 1369 1301 889 
Q 1547 409 2034 409 
Q 2525 409 2770 889 
Q 3016 1369 3016 2328 
Q 3016 3291 2770 3770 
Q 2525 4250 2034 4250 
z
M 2034 4750 
Q 2819 4750 3233 4129 
Q 3647 3509 3647 2328 
Q 3647 1150 3233 529 
Q 2819 -91 2034 -91 
Q 1250 -91 836 529 
Q 422 1150 422 2328 
Q 422 3509 836 4129 
Q 1250 4750 2034 4750 
z
" transform="scale(0.015625)"/>
       </defs>
       <use xlink:href="#DejaVuSans-30"/>
      </g>
     </g>
    </g>
    <g id="ytick_2">
     <g id="line2d_10">
      <path d="M 162.859984 90.380229 
C 173.67819 90.380229 184.391202 92.511179 194.38592 96.651127 
C 204.380638 100.791075 213.462691 106.859509 221.112318 114.509135 
C 228.761944 122.158762 234.830378 131.240815 238.970326 141.235533 
C 243.110274 151.230252 245.241224 161.943263 245.241224 172.761469 
C 245.241224 183.579674 243.110274 194.292686 238.970326 204.287404 
C 234.830378 214.282123 228.761944 223.364176 221.112318 231.013802 
C 213.462691 238.663428 204.380638 244.731862 194.38592 248.87181 
C 184.391202 253.011758 173.67819 255.142709 162.859984 255.142709 
C 152.041779 255.142709 141.328767 253.011758 131.334049 248.87181 
C 121.33933 244.731862 112.257277 238.663428 104.607651 231.013802 
C 96.958025 223.364176 90.889591 214.282123 86.749643 204.287404 
C 82.609695 194.292686 80.478745 183.579674 80.478745 172.761469 
C 80.478745 161.943263 82.609695 151.230252 86.749643 141.235533 
C 90.889591 131.240815 96.958025 122.158762 104.607651 114.509135 
C 112.257277 106.859509 121.33933 100.791075 131.334049 96.651127 
C 141.328767 92.511179 152.041779 90.380229 162.859984 90.380229 
" clip-path="url(#p4e712fda52)" style="fill: none; stroke: #b0b0b0; stroke-width: 0.8; stroke-linecap: square"/>
     </g>
     <g id="text_10">
      <!-- 50 -->
      <g transform="translate(88.197225 206.121504) scale(0.07 -0.07)">
       <defs>
        <path id="DejaVuSans-35" d="M 691 4666 
L 3169 4666 
L 3169 4134 
L 1269 4134 
L 1269 2991 
Q 1406 3038 1543 3061 
Q 1681 3084 1819 3084 
Q 2600 3084 3056 2656 
Q 3513 2228 3513 1497 
Q 3513 744 3044 326 
Q 2575 -91 1722 -91 
Q 1428 -91 1123 -41 
Q 819 9 494 109 
L 494 744 
Q 775 591 1075 516 
Q 1375 441 1709 441 
Q 2250 441 2565 725 
Q 2881 1009 2881 1497 
Q 2881 1984 2565 2268 
Q 2250 2553 1709 2553 
Q 1456 2553 1204 2497 
Q 953 2441 691 2322 
L 691 4666 
z
" transform="scale(0.015625)"/>
       </defs>
       <use xlink:href="#DejaVuSans-35"/>
       <use xlink:href="#DejaVuSans-30" x="63.623047"/>
      </g>
     </g>
    </g>
    <g id="ytick_3">
     <g id="line2d_11">
      <path d="M 162.859984 69.784919 
C 176.382741 69.784919 189.774006 72.448607 202.267404 77.623542 
C 214.760802 82.798477 226.113368 90.384019 235.675401 99.946052 
C 245.237434 109.508085 252.822976 120.860651 257.997911 133.354049 
C 263.172846 145.847447 265.836534 159.238712 265.836534 172.761469 
C 265.836534 186.284225 263.172846 199.67549 257.997911 212.168888 
C 252.822976 224.662286 245.237434 236.014853 235.675401 245.576885 
C 226.113368 255.138918 214.760802 262.724461 202.267404 267.899395 
C 189.774006 273.07433 176.382741 275.738019 162.859984 275.738019 
C 149.337228 275.738019 135.945963 273.07433 123.452565 267.899395 
C 110.959167 262.724461 99.606601 255.138918 90.044568 245.576885 
C 80.482535 236.014853 72.896993 224.662286 67.722058 212.168888 
C 62.547123 199.67549 59.883435 186.284225 59.883435 172.761469 
C 59.883435 159.238712 62.547123 145.847447 67.722058 133.354049 
C 72.896993 120.860651 80.482535 109.508085 90.044568 99.946052 
C 99.606601 90.384019 110.959167 82.798477 123.452565 77.623542 
C 135.945963 72.448607 149.337228 69.784919 162.859984 69.784919 
" clip-path="url(#p4e712fda52)" style="fill: none; stroke: #b0b0b0; stroke-width: 0.8; stroke-linecap: square"/>
     </g>
     <g id="text_11">
      <!-- 100 -->
      <g transform="translate(69.531535 214.825458) scale(0.07 -0.07)">
       <defs>
        <path id="DejaVuSans-31" d="M 794 531 
L 1825 531 
L 1825 4091 
L 703 3866 
L 703 4441 
L 1819 4666 
L 2450 4666 
L 2450 531 
L 3481 531 
L 3481 0 
L 794 0 
L 794 531 
z
" transform="scale(0.015625)"/>
       </defs>
       <use xlink:href="#DejaVuSans-31"/>
       <use xlink:href="#DejaVuSans-30" x="63.623047"/>
       <use xlink:href="#DejaVuSans-30" x="127.246094"/>
      </g>
     </g>
    </g>
    <g id="ytick_4">
     <g id="line2d_12">
      <path d="M 162.859984 49.189609 
C 179.087292 49.189609 195.15681 52.386035 210.148888 58.595957 
C 225.140965 64.805879 238.764045 73.908529 250.238484 85.382969 
C 261.712924 96.857408 270.815575 110.480488 277.025496 125.472565 
C 283.235418 140.464643 286.431844 156.534161 286.431844 172.761469 
C 286.431844 188.988777 283.235418 205.058295 277.025496 220.050372 
C 270.815575 235.04245 261.712924 248.665529 250.238484 260.139969 
C 238.764045 271.614408 225.140965 280.717059 210.148888 286.926981 
C 195.15681 293.136903 179.087292 296.333329 162.859984 296.333329 
C 146.632676 296.333329 130.563159 293.136903 115.571081 286.926981 
C 100.579003 280.717059 86.955924 271.614408 75.481484 260.139969 
C 64.007045 248.665529 54.904394 235.04245 48.694472 220.050372 
C 42.48455 205.058295 39.288125 188.988777 39.288125 172.761469 
C 39.288125 156.534161 42.48455 140.464643 48.694472 125.472565 
C 54.904394 110.480488 64.007045 96.857408 75.481484 85.382969 
C 86.955924 73.908529 100.579003 64.805879 115.571081 58.595957 
C 130.563159 52.386035 146.632676 49.189609 162.859984 49.189609 
" clip-path="url(#p4e712fda52)" style="fill: none; stroke: #b0b0b0; stroke-width: 0.8; stroke-linecap: square"/>
     </g>
     <g id="text_12">
      <!-- 150 -->
      <g transform="translate(50.865846 223.529412) scale(0.07 -0.07)">
       <use xlink:href="#DejaVuSans-31"/>
       <use xlink:href="#DejaVuSans-35" x="63.623047"/>
       <use xlink:href="#DejaVuSans-30" x="127.246094"/>
      </g>
     </g>
    </g>
   </g>
   <g id="patch_11">
    <path d="M 162.859984 39.705469 
C 145.387231 39.705469 128.084377 43.14722 111.941658 49.833754 
C 95.798938 56.520287 81.130287 66.321566 68.775184 78.676669 
C 56.420082 91.031772 46.618803 105.700422 39.932269 121.843142 
C 33.245736 137.985862 29.803984 155.288715 29.803984 172.761469 
C 29.803984 190.234223 33.245736 207.537076 39.932269 223.679796 
C 46.618803 239.822515 56.420082 254.491166 68.775184 266.846269 
C 81.130287 279.201371 95.798938 289.00265 111.941658 295.689184 
C 128.084377 302.375717 145.387231 305.817469 162.859984 305.817469 
C 180.332738 305.817469 197.635592 302.375717 213.778311 295.689184 
C 229.921031 289.00265 244.589682 279.201371 256.944784 266.846269 
C 269.299887 254.491166 279.101166 239.822515 285.787699 223.679796 
C 292.474233 207.537076 295.915984 190.234223 295.915984 172.761469 
C 295.915984 155.288715 292.474233 137.985862 285.787699 121.843142 
C 279.101166 105.700422 269.299887 91.031772 256.944784 78.676669 
C 244.589682 66.321566 229.921031 56.520287 213.778311 49.833754 
C 197.635592 43.14722 180.332738 39.705469 162.859984 39.705469 
" style="fill: none; stroke: #000000; stroke-width: 0.8; stroke-linejoin: miter; stroke-linecap: square"/>
   </g>
   <g id="patch_12">
    <path d="M 162.859984 110.975539 
C 154.74633 110.975539 146.711571 112.573752 139.215533 115.678713 
C 131.719494 118.783674 124.907954 123.334999 119.170734 129.072219 
C 113.433515 134.809438 108.882189 141.620978 105.777228 149.117017 
C 102.672267 156.613056 101.074054 164.647815 101.074054 172.761469 
C 101.074054 180.875123 102.672267 188.909882 105.777228 196.40592 
C 108.882189 203.901959 113.433515 210.713499 119.170734 216.450719 
C 124.907954 222.187938 131.719494 226.739264 139.215533 229.844225 
C 146.711571 232.949186 154.74633 234.547399 162.859984 234.547399 
C 170.973638 234.547399 179.008397 232.949186 186.504436 229.844225 
C 194.000475 226.739264 200.812015 222.187938 206.549234 216.450719 
C 212.286454 210.713499 216.837779 203.901959 219.94274 196.40592 
C 223.047701 188.909882 224.645914 180.875123 224.645914 172.761469 
C 224.645914 164.647815 223.047701 156.613056 219.94274 149.117017 
C 216.837779 141.620978 212.286454 134.809438 206.549234 129.072219 
C 200.812015 123.334999 194.000475 118.783674 186.504436 115.678713 
C 179.008397 112.573752 170.973638 110.975539 162.859984 110.975539 
" style="fill: none; stroke: #000000; stroke-width: 0.8; stroke-linejoin: miter; stroke-linecap: square"/>
   </g>
   <g id="text_13">
    <!-- Mean Annual Avalanches by Aspect -->
    <g transform="translate(56.240922 16.318125) scale(0.12 -0.12)">
     <defs>
      <path id="DejaVuSans-4d" d="M 628 4666 
L 1569 4666 
L 2759 1491 
L 3956 4666 
L 4897 4666 
L 4897 0 
L 4281 0 
L 4281 4097 
L 3078 897 
L 2444 897 
L 1241 4097 
L 1241 0 
L 628 0 
L 628 4666 
z
" transform="scale(0.015625)"/>
      <path id="DejaVuSans-6e" d="M 3513 2113 
L 3513 0 
L 2938 0 
L 2938 2094 
Q 2938 2591 2744 2837 
Q 2550 3084 2163 3084 
Q 1697 3084 1428 2787 
Q 1159 2491 1159 1978 
L 1159 0 
L 581 0 
L 581 3500 
L 1159 3500 
L 1159 2956 
Q 1366 3272 1645 3428 
Q 1925 3584 2291 3584 
Q 2894 3584 3203 3211 
Q 3513 2838 3513 2113 
z
" transform="scale(0.015625)"/>
      <path id="DejaVuSans-20" transform="scale(0.015625)"/>
      <path id="DejaVuSans-41" d="M 2188 4044 
L 1331 1722 
L 3047 1722 
L 2188 4044 
z
M 1831 4666 
L 2547 4666 
L 4325 0 
L 3669 0 
L 3244 1197 
L 1141 1197 
L 716 0 
L 50 0 
L 1831 4666 
z
" transform="scale(0.015625)"/>
      <path id="DejaVuSans-6c" d="M 603 4863 
L 1178 4863 
L 1178 0 
L 603 0 
L 603 4863 
z
" transform="scale(0.015625)"/>
      <path id="DejaVuSans-76" d="M 191 3500 
L 800 3500 
L 1894 563 
L 2988 3500 
L 3597 3500 
L 2284 0 
L 1503 0 
L 191 3500 
z
" transform="scale(0.015625)"/>
      <path id="DejaVuSans-63" d="M 3122 3366 
L 3122 2828 
Q 2878 2963 2633 3030 
Q 2388 3097 2138 3097 
Q 1578 3097 1268 2742 
Q 959 2388 959 1747 
Q 959 1106 1268 751 
Q 1578 397 2138 397 
Q 2388 397 2633 464 
Q 2878 531 3122 666 
L 3122 134 
Q 2881 22 2623 -34 
Q 2366 -91 2075 -91 
Q 1284 -91 818 406 
Q 353 903 353 1747 
Q 353 2603 823 3093 
Q 1294 3584 2113 3584 
Q 2378 3584 2631 3529 
Q 2884 3475 3122 3366 
z
" transform="scale(0.015625)"/>
      <path id="DejaVuSans-62" d="M 3116 1747 
Q 3116 2381 2855 2742 
Q 2594 3103 2138 3103 
Q 1681 3103 1420 2742 
Q 1159 2381 1159 1747 
Q 1159 1113 1420 752 
Q 1681 391 2138 391 
Q 2594 391 2855 752 
Q 3116 1113 3116 1747 
z
M 1159 2969 
Q 1341 3281 1617 3432 
Q 1894 3584 2278 3584 
Q 2916 3584 3314 3078 
Q 3713 2572 3713 1747 
Q 3713 922 3314 415 
Q 2916 -91 2278 -91 
Q 1894 -91 1617 61 
Q 1341 213 1159 525 
L 1159 0 
L 581 0 
L 581 4863 
L 1159 4863 
L 1159 2969 
z
" transform="scale(0.015625)"/>
      <path id="DejaVuSans-79" d="M 2059 -325 
Q 1816 -950 1584 -1140 
Q 1353 -1331 966 -1331 
L 506 -1331 
L 506 -850 
L 844 -850 
Q 1081 -850 1212 -737 
Q 1344 -625 1503 -206 
L 1606 56 
L 191 3500 
L 800 3500 
L 1894 763 
L 2988 3500 
L 3597 3500 
L 2059 -325 
z
" transform="scale(0.015625)"/>
      <path id="DejaVuSans-70" d="M 1159 525 
L 1159 -1331 
L 581 -1331 
L 581 3500 
L 1159 3500 
L 1159 2969 
Q 1341 3281 1617 3432 
Q 1894 3584 2278 3584 
Q 2916 3584 3314 3078 
Q 3713 2572 3713 1747 
Q 3713 922 3314 415 
Q 2916 -91 2278 -91 
Q 1894 -91 1617 61 
Q 1341 213 1159 525 
z
M 3116 1747 
Q 3116 2381 2855 2742 
Q 2594 3103 2138 3103 
Q 1681 3103 1420 2742 
Q 1159 2381 1159 1747 
Q 1159 1113 1420 752 
Q 1681 391 2138 391 
Q 2594 391 2855 752 
Q 3116 1113 3116 1747 
z
" transform="scale(0.015625)"/>
     </defs>
     <use xlink:href="#DejaVuSans-4d"/>
     <use xlink:href="#DejaVuSans-65" x="86.279297"/>
     <use xlink:href="#DejaVuSans-61" x="147.802734"/>
     <use xlink:href="#DejaVuSans-6e" x="209.082031"/>
     <use xlink:href="#DejaVuSans-20" x="272.460938"/>
     <use xlink:href="#DejaVuSans-41" x="304.248047"/>
     <use xlink:href="#DejaVuSans-6e" x="372.65625"/>
     <use xlink:href="#DejaVuSans-6e" x="436.035156"/>
     <use xlink:href="#DejaVuSans-75" x="499.414062"/>
     <use xlink:href="#DejaVuSans-61" x="562.792969"/>
     <use xlink:href="#DejaVuSans-6c" x="624.072266"/>
     <use xlink:href="#DejaVuSans-20" x="651.855469"/>
     <use xlink:href="#DejaVuSans-41" x="683.642578"/>
     <use xlink:href="#DejaVuSans-76" x="746.175781"/>
     <use xlink:href="#DejaVuSans-61" x="805.355469"/>
     <use xlink:href="#DejaVuSans-6c" x="866.634766"/>
     <use xlink:href="#DejaVuSans-61" x="894.417969"/>
     <use xlink:href="#DejaVuSans-6e" x="955.697266"/>
     <use xlink:href="#DejaVuSans-63" x="1019.076172"/>
     <use xlink:href="#DejaVuSans-68" x="1074.056641"/>
     <use xlink:href="#DejaVuSans-65" x="1137.435547"/>
     <use xlink:href="#DejaVuSans-73" x="1198.958984"/>
     <use xlink:href="#DejaVuSans-20" x="1251.058594"/>
     <use xlink:href="#DejaVuSans-62" x="1282.845703"/>
     <use xlink:href="#DejaVuSans-79" x="1346.322266"/>
     <use xlink:href="#DejaVuSans-20" x="1405.501953"/>
     <use xlink:href="#DejaVuSans-41" x="1437.289062"/>
     <use xlink:href="#DejaVuSans-73" x="1505.697266"/>
     <use xlink:href="#DejaVuSans-70" x="1557.796875"/>
     <use xlink:href="#DejaVuSans-65" x="1621.273438"/>
     <use xlink:href="#DejaVuSans-63" x="1682.796875"/>
     <use xlink:href="#DejaVuSans-74" x="1737.777344"/>
    </g>
   </g>
  </g>
 </g>
 <defs>
  <clipPath id="p4e712fda52">
   <path d="M 295.915984 172.761469 
C 295.915984 155.288715 292.474233 137.985862 285.787699 121.843142 
C 279.101166 105.700422 269.299887 91.031772 256.944784 78.676669 
C 244.589682 66.321566 229.921031 56.520287 213.778311 49.833754 
C 197.635592 43.14722 180.332738 39.705469 162.859984 39.705469 
C 145.387231 39.705469 128.084377 43.14722 111.941658 49.833754 
C 95.798938 56.520287 81.130287 66.321566 68.775184 78.676669 
C 56.420082 91.031772 46.618803 105.700422 39.932269 121.843142 
C 33.245736 137.985862 29.803984 155.288715 29.803984 172.761469 
C 29.803984 190.234223 33.245736 207.537076 39.932269 223.679796 
C 46.618803 239.822515 56.420082 254.491166 68.775184 266.846269 
C 81.130287 279.201371 95.798938 289.00265 111.941658 295.689184 
C 128.084377 302.375717 145.387231 305.817469 162.859984 305.817469 
C 180.332738 305.817469 197.635592 302.375717 213.778311 295.689184 
C 229.921031 289.00265 244.589682 279.201371 256.944784 266.846269 
C 269.299887 254.491166 279.101166 239.822515 285.787699 223.679796 
C 292.474233 207.537076 295.915984 190.234223 295.915984 172.761469 
M 224.645914 172.761469 
C 224.645914 180.875123 223.047701 188.909882 219.94274 196.40592 
C 216.837779 203.901959 212.286454 210.713499 206.549234 216.450719 
C 200.812015 222.187938 194.000475 226.739264 186.504436 229.844225 
C 179.008397 232.949186 170.973638 234.547399 162.859984 234.547399 
C 154.74633 234.547399 146.711571 232.949186 139.215533 229.844225 
C 131.719494 226.739264 124.907954 222.187938 119.170734 216.450719 
C 113.433515 210.713499 108.882189 203.901959 105.777228 196.40592 
C 102.672267 188.909882 101.074054 180.875123 101.074054 172.761469 
C 101.074054 164.647815 102.672267 156.613056 105.777228 149.117017 
C 108.882189 141.620978 113.433515 134.809438 119.170734 129.072219 
C 124.907954 123.334999 131.719494 118.783674 139.215533 115.678713 
C 146.711571 112.573752 154.74633 110.975539 162.859984 110.975539 
C 170.973638 110.975539 179.008397 112.573752 186.504436 115.678713 
C 194.000475 118.783674 200.812015 123.334999 206.549234 129.072219 
C 212.286454 134.809438 216.837779 141.620978 219.94274 149.117017 
C 223.047701 156.613056 224.645914 164.647815 224.645914 172.761469 
z
"/>
  </clipPath>
 </defs>
</svg>
