<?xml version="1.0" encoding="utf-8" standalone="no"?>
<!DOCTYPE svg PUBLIC "-//W3C//DTD SVG 1.1//EN"
  "http://www.w3.org/Graphics/SVG/1.1/DTD/svg11.dtd">
<svg xmlns:xlink="http://www.w3.org/1999/xlink" width="378.965625pt" height="392.514375pt" viewBox="0 0 378.965625 392.514375" xmlns="http://www.w3.org/2000/svg" version="1.1">
 <metadata>
  <rdf:RDF xmlns:dc="http://purl.org/dc/elements/1.1/" xmlns:cc="http://creativecommons.org/ns#" xmlns:rdf="http://www.w3.org/1999/02/22-rdf-syntax-ns#">
   <cc:Work>
    <dc:type rdf:resource="http://purl.org/dc/dcmitype/StillImage"/>
    <dc:date>2023-09-08T13:02:52.711590</dc:date>
    <dc:format>image/svg+xml</dc:format>
    <dc:creator>
     <cc:Agent>
      <dc:title>Matplotlib v3.7.1, https://matplotlib.org/</dc:title>
     </cc:Agent>
    </dc:creator>
   </cc:Work>
  </rdf:RDF>
 </metadata>
 <defs>
  <style type="text/css">*{stroke-linejoin: round; stroke-linecap: butt}</style>
 </defs>
 <g id="figure_1">
  <g id="patch_1">
   <path d="M 0 392.514375 
L 378.965625 392.514375 
L 378.965625 0 
L 0 0 
z
" style="fill: #ffffff"/>
  </g>
  <g id="axes_1">
   <g id="patch_2">
    <path d="M 92.765625 354.958125 
L 371.765625 354.958125 
L 371.765625 22.318125 
L 92.765625 22.318125 
z
" style="fill: #ffffff"/>
   </g>
   <g id="PolyCollection_1">
    <defs>
     <path id="m28472c4207" d="M 223.579448 -60.805155 
L 223.579448 -60.463134 
L 224.948179 -60.453154 
L 226.31691 -60.447859 
L 227.685641 -60.447652 
L 229.054372 -60.452542 
L 230.423103 -60.462143 
L 231.791834 -60.475708 
L 233.160564 -60.492211 
L 234.529295 -60.51044 
L 235.898026 -60.529114 
L 237.266757 -60.546979 
L 238.635488 -60.562885 
L 240.004219 -60.57583 
L 241.37295 -60.584961 
L 242.741681 -60.589559 
L 244.110412 -60.58901 
L 245.479142 -60.582792 
L 246.847873 -60.570497 
L 248.216604 -60.551885 
L 249.585335 -60.526982 
L 250.954066 -60.496172 
L 252.322797 -60.460271 
L 253.691528 -60.420526 
L 255.060259 -60.378518 
L 256.42899 -60.335961 
L 257.797721 -60.294413 
L 259.166451 -60.254955 
L 260.535182 -60.217908 
L 261.903913 -60.182654 
L 263.272644 -60.14763 
L 264.641375 -60.110483 
L 266.010106 -60.068394 
L 267.378837 -60.018466 
L 268.747568 -59.958118 
L 270.116299 -59.885386 
L 271.48503 -59.799079 
L 272.85376 -59.698781 
L 274.222491 -59.584731 
L 275.591222 -59.457652 
L 276.959953 -59.318599 
L 278.328684 -59.168875 
L 279.697415 -59.010039 
L 281.066146 -58.843968 
L 282.434877 -58.672915 
L 283.803608 -58.4995 
L 285.172338 -58.326559 
L 286.541069 -58.156858 
L 287.9098 -57.99266 
L 289.278531 -57.835242 
L 290.647262 -57.684437 
L 292.015993 -57.538309 
L 293.384724 -57.393049 
L 294.753455 -57.243168 
L 296.122186 -57.081978 
L 297.490917 -56.902342 
L 298.859647 -56.697594 
L 300.228378 -56.462492 
L 301.597109 -56.194071 
L 302.96584 -55.892254 
L 304.334571 -55.560154 
L 305.703302 -55.204038 
L 307.072033 -54.832982 
L 308.440764 -54.458278 
L 309.809495 -54.092654 
L 311.178225 -53.749332 
L 312.546956 -53.440944 
L 313.915687 -53.178341 
L 315.284418 -52.969382 
L 316.653149 -52.817878 
L 318.02188 -52.722927 
L 319.390611 -52.678904 
L 320.759342 -52.67625 
L 322.128073 -52.703072 
L 323.496804 -52.747325 
L 324.865534 -52.799182 
L 326.234265 -52.853077 
L 327.602996 -52.90898 
L 328.971727 -52.972613 
L 330.340458 -53.054526 
L 331.709189 -53.168242 
L 333.07792 -53.327827 
L 334.446651 -53.545346 
L 335.815382 -53.828647 
L 337.184112 -54.179844 
L 338.552843 -54.594707 
L 339.921574 -55.063014 
L 341.290305 -55.569773 
L 342.659036 -56.097068 
L 344.027767 -56.626207 
L 345.396498 -57.139806 
L 346.765229 -57.623478 
L 348.13396 -58.06689 
L 349.502691 -58.464113 
L 350.871421 -58.81329 
L 352.240152 -59.11583 
L 353.608883 -59.375349 
L 354.977614 -59.596604 
L 356.346345 -59.784609 
L 357.715076 -59.94404 
L 359.083807 -60.078918 
L 359.083807 -61.189371 
L 359.083807 -61.189371 
L 357.715076 -61.32425 
L 356.346345 -61.48368 
L 354.977614 -61.671686 
L 353.608883 -61.89294 
L 352.240152 -62.152459 
L 350.871421 -62.455 
L 349.502691 -62.804177 
L 348.13396 -63.201399 
L 346.765229 -63.644812 
L 345.396498 -64.128483 
L 344.027767 -64.642083 
L 342.659036 -65.171222 
L 341.290305 -65.698517 
L 339.921574 -66.205275 
L 338.552843 -66.673582 
L 337.184112 -67.088445 
L 335.815382 -67.439643 
L 334.446651 -67.722943 
L 333.07792 -67.940462 
L 331.709189 -68.100048 
L 330.340458 -68.213764 
L 328.971727 -68.295676 
L 327.602996 -68.359309 
L 326.234265 -68.415213 
L 324.865534 -68.469107 
L 323.496804 -68.520964 
L 322.128073 -68.565218 
L 320.759342 -68.592039 
L 319.390611 -68.589385 
L 318.02188 -68.545363 
L 316.653149 -68.450412 
L 315.284418 -68.298907 
L 313.915687 -68.089948 
L 312.546956 -67.827345 
L 311.178225 -67.518957 
L 309.809495 -67.175635 
L 308.440764 -66.810012 
L 307.072033 -66.435308 
L 305.703302 -66.064251 
L 304.334571 -65.708135 
L 302.96584 -65.376036 
L 301.597109 -65.074218 
L 300.228378 -64.805797 
L 298.859647 -64.570696 
L 297.490917 -64.365948 
L 296.122186 -64.186312 
L 294.753455 -64.025122 
L 293.384724 -63.87524 
L 292.015993 -63.729981 
L 290.647262 -63.583852 
L 289.278531 -63.433047 
L 287.9098 -63.27563 
L 286.541069 -63.111432 
L 285.172338 -62.94173 
L 283.803608 -62.76879 
L 282.434877 -62.595374 
L 281.066146 -62.424321 
L 279.697415 -62.25825 
L 278.328684 -62.099415 
L 276.959953 -61.949691 
L 275.591222 -61.810638 
L 274.222491 -61.683559 
L 272.85376 -61.569508 
L 271.48503 -61.46921 
L 270.116299 -61.382904 
L 268.747568 -61.310172 
L 267.378837 -61.249824 
L 266.010106 -61.199895 
L 264.641375 -61.157806 
L 263.272644 -61.12066 
L 261.903913 -61.085635 
L 260.535182 -61.050382 
L 259.166451 -61.013334 
L 257.797721 -60.973876 
L 256.42899 -60.932328 
L 255.060259 -60.889772 
L 253.691528 -60.847764 
L 252.322797 -60.808018 
L 250.954066 -60.772117 
L 249.585335 -60.741307 
L 248.216604 -60.716404 
L 246.847873 -60.697793 
L 245.479142 -60.685497 
L 244.110412 -60.67928 
L 242.741681 -60.678731 
L 241.37295 -60.683329 
L 240.004219 -60.69246 
L 238.635488 -60.705404 
L 237.266757 -60.721311 
L 235.898026 -60.739176 
L 234.529295 -60.75785 
L 233.160564 -60.776079 
L 231.791834 -60.792581 
L 230.423103 -60.806147 
L 229.054372 -60.815748 
L 227.685641 -60.820638 
L 226.31691 -60.82043 
L 224.948179 -60.815135 
L 223.579448 -60.805155 
z
" style="stroke: #000000; stroke-opacity: 0.5"/>
    </defs>
    <g clip-path="url(#p6650d425cf)">
     <use xlink:href="#m28472c4207" x="0" y="392.514375" style="fill: #1f77b4; fill-opacity: 0.5; stroke: #000000; stroke-opacity: 0.5"/>
    </g>
   </g>
   <g id="PolyCollection_2">
    <defs>
     <path id="m6ce78591a5" d="M 223.579448 -92.982766 
L 223.579448 -91.948682 
L 224.597222 -91.945896 
L 225.614997 -91.946472 
L 226.632771 -91.949899 
L 227.650545 -91.955493 
L 228.668319 -91.962415 
L 229.686094 -91.969687 
L 230.703868 -91.976223 
L 231.721642 -91.980852 
L 232.739416 -91.982354 
L 233.757191 -91.979491 
L 234.774965 -91.971039 
L 235.792739 -91.955813 
L 236.810513 -91.932704 
L 237.828288 -91.90069 
L 238.846062 -91.858868 
L 239.863836 -91.806458 
L 240.881611 -91.742825 
L 241.899385 -91.667475 
L 242.917159 -91.580071 
L 243.934933 -91.480421 
L 244.952708 -91.368486 
L 245.970482 -91.244371 
L 246.988256 -91.10832 
L 248.00603 -90.96071 
L 249.023805 -90.80204 
L 250.041579 -90.632926 
L 251.059353 -90.454092 
L 252.077127 -90.266356 
L 253.094902 -90.070623 
L 254.112676 -89.867876 
L 255.13045 -89.659156 
L 256.148224 -89.445557 
L 257.165999 -89.228205 
L 258.183773 -89.008242 
L 259.201547 -88.786807 
L 260.219321 -88.565015 
L 261.237096 -88.343929 
L 262.25487 -88.124543 
L 263.272644 -87.907749 
L 264.290418 -87.694324 
L 265.308193 -87.484901 
L 266.325967 -87.27996 
L 267.343741 -87.079819 
L 268.361515 -86.884639 
L 269.37929 -86.694437 
L 270.397064 -86.509111 
L 271.414838 -86.328486 
L 272.432612 -86.15236 
L 273.450387 -85.980573 
L 274.468161 -85.813078 
L 275.485935 -85.650012 
L 276.503709 -85.49177 
L 277.521484 -85.339067 
L 278.539258 -85.192987 
L 279.557032 -85.055008 
L 280.574806 -84.926998 
L 281.592581 -84.811189 
L 282.610355 -84.710106 
L 283.628129 -84.626477 
L 284.645904 -84.563102 
L 285.663678 -84.522717 
L 286.681452 -84.507829 
L 287.699226 -84.520559 
L 288.717001 -84.562492 
L 289.734775 -84.634547 
L 290.752549 -84.736879 
L 291.770323 -84.86882 
L 292.788098 -85.028871 
L 293.805872 -85.214732 
L 294.823646 -85.423393 
L 295.84142 -85.651253 
L 296.859195 -85.894285 
L 297.876969 -86.148215 
L 298.894743 -86.408717 
L 299.912517 -86.671603 
L 300.930292 -86.933003 
L 301.948066 -87.189509 
L 302.96584 -87.438298 
L 303.983614 -87.677202 
L 305.001389 -87.904744 
L 306.019163 -88.120131 
L 307.036937 -88.3232 
L 308.054711 -88.51435 
L 309.072486 -88.694434 
L 310.09026 -88.864643 
L 311.108034 -89.026387 
L 312.125808 -89.181177 
L 313.143583 -89.330513 
L 314.161357 -89.475795 
L 315.179131 -89.618247 
L 316.196905 -89.75887 
L 317.21468 -89.898406 
L 318.232454 -90.037332 
L 319.250228 -90.175863 
L 320.268002 -90.313977 
L 321.285777 -90.451442 
L 322.303551 -90.587853 
L 323.321325 -90.722678 
L 324.339099 -90.855292 
L 324.339099 -94.076155 
L 324.339099 -94.076155 
L 323.321325 -94.208769 
L 322.303551 -94.343594 
L 321.285777 -94.480006 
L 320.268002 -94.61747 
L 319.250228 -94.755584 
L 318.232454 -94.894116 
L 317.21468 -95.033041 
L 316.196905 -95.172577 
L 315.179131 -95.3132 
L 314.161357 -95.455653 
L 313.143583 -95.600934 
L 312.125808 -95.75027 
L 311.108034 -95.90506 
L 310.09026 -96.066805 
L 309.072486 -96.237014 
L 308.054711 -96.417097 
L 307.036937 -96.608247 
L 306.019163 -96.811317 
L 305.001389 -97.026703 
L 303.983614 -97.254246 
L 302.96584 -97.49315 
L 301.948066 -97.741939 
L 300.930292 -97.998445 
L 299.912517 -98.259844 
L 298.894743 -98.52273 
L 297.876969 -98.783232 
L 296.859195 -99.037162 
L 295.84142 -99.280194 
L 294.823646 -99.508055 
L 293.805872 -99.716715 
L 292.788098 -99.902577 
L 291.770323 -100.062627 
L 290.752549 -100.194569 
L 289.734775 -100.2969 
L 288.717001 -100.368955 
L 287.699226 -100.410888 
L 286.681452 -100.423618 
L 285.663678 -100.40873 
L 284.645904 -100.368345 
L 283.628129 -100.304971 
L 282.610355 -100.221341 
L 281.592581 -100.120258 
L 280.574806 -100.004449 
L 279.557032 -99.87644 
L 278.539258 -99.73846 
L 277.521484 -99.59238 
L 276.503709 -99.439677 
L 275.485935 -99.281435 
L 274.468161 -99.118369 
L 273.450387 -98.950874 
L 272.432612 -98.779088 
L 271.414838 -98.602962 
L 270.397064 -98.422336 
L 269.37929 -98.237011 
L 268.361515 -98.046808 
L 267.343741 -97.851628 
L 266.325967 -97.651488 
L 265.308193 -97.446546 
L 264.290418 -97.237123 
L 263.272644 -97.023698 
L 262.25487 -96.806905 
L 261.237096 -96.587518 
L 260.219321 -96.366432 
L 259.201547 -96.14464 
L 258.183773 -95.923205 
L 257.165999 -95.703243 
L 256.148224 -95.485891 
L 255.13045 -95.272292 
L 254.112676 -95.063572 
L 253.094902 -94.860824 
L 252.077127 -94.665092 
L 251.059353 -94.477355 
L 250.041579 -94.298521 
L 249.023805 -94.129408 
L 248.00603 -93.970738 
L 246.988256 -93.823127 
L 245.970482 -93.687076 
L 244.952708 -93.562961 
L 243.934933 -93.451027 
L 242.917159 -93.351377 
L 241.899385 -93.263972 
L 240.881611 -93.188623 
L 239.863836 -93.124989 
L 238.846062 -93.07258 
L 237.828288 -93.030757 
L 236.810513 -92.998744 
L 235.792739 -92.975634 
L 234.774965 -92.960409 
L 233.757191 -92.951956 
L 232.739416 -92.949093 
L 231.721642 -92.950596 
L 230.703868 -92.955225 
L 229.686094 -92.96176 
L 228.668319 -92.969033 
L 227.650545 -92.975954 
L 226.632771 -92.981549 
L 225.614997 -92.984976 
L 224.597222 -92.985552 
L 223.579448 -92.982766 
z
" style="stroke: #000000; stroke-opacity: 0.5"/>
    </defs>
    <g clip-path="url(#p6650d425cf)">
     <use xlink:href="#m6ce78591a5" x="0" y="392.514375" style="fill: #1f77b4; fill-opacity: 0.5; stroke: #000000; stroke-opacity: 0.5"/>
    </g>
   </g>
   <g id="PolyCollection_3">
    <defs>
     <path id="m0660c90b9c" d="M 265.273097 -127.192618 
L 265.273097 -121.401987 
L 265.764436 -121.253859 
L 266.255776 -121.10153 
L 266.747115 -120.945104 
L 267.238454 -120.784713 
L 267.729793 -120.620528 
L 268.221133 -120.452755 
L 268.712472 -120.28164 
L 269.203811 -120.107475 
L 269.695151 -119.930596 
L 270.18649 -119.751385 
L 270.677829 -119.570275 
L 271.169169 -119.387744 
L 271.660508 -119.204321 
L 272.151847 -119.020582 
L 272.643186 -118.837145 
L 273.134526 -118.654674 
L 273.625865 -118.473869 
L 274.117204 -118.295464 
L 274.608544 -118.120221 
L 275.099883 -117.948926 
L 275.591222 -117.782377 
L 276.082561 -117.62138 
L 276.573901 -117.466741 
L 277.06524 -117.319253 
L 277.556579 -117.179691 
L 278.047919 -117.048803 
L 278.539258 -116.927297 
L 279.030597 -116.815833 
L 279.521937 -116.715017 
L 280.013276 -116.625386 
L 280.504615 -116.547407 
L 280.995954 -116.481465 
L 281.487294 -116.427858 
L 281.978633 -116.386791 
L 282.469972 -116.358372 
L 282.961312 -116.342609 
L 283.452651 -116.339408 
L 283.94399 -116.348571 
L 284.43533 -116.369798 
L 284.926669 -116.402689 
L 285.418008 -116.446749 
L 285.909347 -116.501388 
L 286.400687 -116.565932 
L 286.892026 -116.639628 
L 287.383365 -116.721651 
L 287.874705 -116.811117 
L 288.366044 -116.907087 
L 288.857383 -117.008583 
L 289.348722 -117.114597 
L 289.840062 -117.224103 
L 290.331401 -117.336066 
L 290.82274 -117.449458 
L 291.31408 -117.563268 
L 291.805419 -117.676509 
L 292.296758 -117.788237 
L 292.788098 -117.897555 
L 293.279437 -118.003623 
L 293.770776 -118.10567 
L 294.262115 -118.203002 
L 294.753455 -118.295005 
L 295.244794 -118.381153 
L 295.736133 -118.461015 
L 296.227473 -118.534258 
L 296.718812 -118.600646 
L 297.210151 -118.660046 
L 297.701491 -118.712425 
L 298.19283 -118.757853 
L 298.684169 -118.796497 
L 299.175508 -118.828619 
L 299.666848 -118.854573 
L 300.158187 -118.8748 
L 300.649526 -118.889819 
L 301.140866 -118.900223 
L 301.632205 -118.906669 
L 302.123544 -118.909872 
L 302.614883 -118.910591 
L 303.106223 -118.909626 
L 303.597562 -118.9078 
L 304.088901 -118.905956 
L 304.580241 -118.904942 
L 305.07158 -118.9056 
L 305.562919 -118.908757 
L 306.054259 -118.915216 
L 306.545598 -118.925741 
L 307.036937 -118.941053 
L 307.528276 -118.961819 
L 308.019616 -118.988641 
L 308.510955 -119.022053 
L 309.002294 -119.062514 
L 309.493634 -119.110398 
L 309.984973 -119.165997 
L 310.476312 -119.229513 
L 310.967651 -119.301058 
L 311.458991 -119.380652 
L 311.95033 -119.468226 
L 312.441669 -119.563623 
L 312.933009 -119.666601 
L 313.424348 -119.776838 
L 313.915687 -119.893935 
L 313.915687 -128.70067 
L 313.915687 -128.70067 
L 313.424348 -128.817767 
L 312.933009 -128.928004 
L 312.441669 -129.030982 
L 311.95033 -129.126379 
L 311.458991 -129.213953 
L 310.967651 -129.293547 
L 310.476312 -129.365092 
L 309.984973 -129.428608 
L 309.493634 -129.484207 
L 309.002294 -129.532092 
L 308.510955 -129.572552 
L 308.019616 -129.605965 
L 307.528276 -129.632787 
L 307.036937 -129.653552 
L 306.545598 -129.668864 
L 306.054259 -129.67939 
L 305.562919 -129.685848 
L 305.07158 -129.689005 
L 304.580241 -129.689663 
L 304.088901 -129.688649 
L 303.597562 -129.686805 
L 303.106223 -129.68498 
L 302.614883 -129.684014 
L 302.123544 -129.684733 
L 301.632205 -129.687936 
L 301.140866 -129.694382 
L 300.649526 -129.704786 
L 300.158187 -129.719805 
L 299.666848 -129.740032 
L 299.175508 -129.765986 
L 298.684169 -129.798109 
L 298.19283 -129.836752 
L 297.701491 -129.88218 
L 297.210151 -129.93456 
L 296.718812 -129.993959 
L 296.227473 -130.060347 
L 295.736133 -130.13359 
L 295.244794 -130.213452 
L 294.753455 -130.299601 
L 294.262115 -130.391603 
L 293.770776 -130.488935 
L 293.279437 -130.590983 
L 292.788098 -130.697051 
L 292.296758 -130.806368 
L 291.805419 -130.918096 
L 291.31408 -131.031338 
L 290.82274 -131.145147 
L 290.331401 -131.258539 
L 289.840062 -131.370503 
L 289.348722 -131.480008 
L 288.857383 -131.586023 
L 288.366044 -131.687519 
L 287.874705 -131.783489 
L 287.383365 -131.872954 
L 286.892026 -131.954977 
L 286.400687 -132.028673 
L 285.909347 -132.093217 
L 285.418008 -132.147856 
L 284.926669 -132.191916 
L 284.43533 -132.224808 
L 283.94399 -132.246035 
L 283.452651 -132.255197 
L 282.961312 -132.251996 
L 282.469972 -132.236233 
L 281.978633 -132.207815 
L 281.487294 -132.166748 
L 280.995954 -132.11314 
L 280.504615 -132.047198 
L 280.013276 -131.969219 
L 279.521937 -131.879589 
L 279.030597 -131.778772 
L 278.539258 -131.667308 
L 278.047919 -131.545802 
L 277.556579 -131.414914 
L 277.06524 -131.275353 
L 276.573901 -131.127865 
L 276.082561 -130.973225 
L 275.591222 -130.812228 
L 275.099883 -130.645679 
L 274.608544 -130.474384 
L 274.117204 -130.299142 
L 273.625865 -130.120737 
L 273.134526 -129.939931 
L 272.643186 -129.75746 
L 272.151847 -129.574024 
L 271.660508 -129.390284 
L 271.169169 -129.206861 
L 270.677829 -129.024331 
L 270.18649 -128.84322 
L 269.695151 -128.664009 
L 269.203811 -128.48713 
L 268.712472 -128.312965 
L 268.221133 -128.141851 
L 267.729793 -127.974077 
L 267.238454 -127.809892 
L 266.747115 -127.649502 
L 266.255776 -127.493075 
L 265.764436 -127.340746 
L 265.273097 -127.192618 
z
" style="stroke: #000000; stroke-opacity: 0.5"/>
    </defs>
    <g clip-path="url(#p6650d425cf)">
     <use xlink:href="#m0660c90b9c" x="0" y="392.514375" style="fill: #1f77b4; fill-opacity: 0.5; stroke: #000000; stroke-opacity: 0.5"/>
    </g>
   </g>
   <g id="PolyCollection_4">
    <defs>
     <path id="m984a3c9f1e" d="M 154.090033 -156.193111 
L 154.090033 -156.064652 
L 155.985199 -156.056139 
L 157.880365 -156.049396 
L 159.775531 -156.044358 
L 161.670697 -156.040653 
L 163.565863 -156.037754 
L 165.461029 -156.035183 
L 167.356194 -156.03269 
L 169.25136 -156.030398 
L 171.146526 -156.028865 
L 173.041692 -156.028989 
L 174.936858 -156.031741 
L 176.832024 -156.037773 
L 178.72719 -156.047043 
L 180.622355 -156.058619 
L 182.517521 -156.070775 
L 184.412687 -156.081339 
L 186.307853 -156.088189 
L 188.203019 -156.089713 
L 190.098185 -156.08513 
L 191.993351 -156.074594 
L 193.888516 -156.059039 
L 195.783682 -156.039753 
L 197.678848 -156.017776 
L 199.574014 -155.993326 
L 201.46918 -155.965555 
L 203.364346 -155.932864 
L 205.259512 -155.893741 
L 207.154677 -155.84782 
L 209.049843 -155.79668 
L 210.945009 -155.743999 
L 212.840175 -155.694942 
L 214.735341 -155.654982 
L 216.630507 -155.628558 
L 218.525673 -155.617945 
L 220.420838 -155.622636 
L 222.316004 -155.639323 
L 224.21117 -155.662429 
L 226.106336 -155.685043 
L 228.001502 -155.700018 
L 229.896668 -155.701017 
L 231.791834 -155.683348 
L 233.686999 -155.644538 
L 235.582165 -155.584585 
L 237.477331 -155.505751 
L 239.372497 -155.411701 
L 241.267663 -155.305889 
L 243.162829 -155.189416 
L 245.057995 -155.05903 
L 246.95316 -154.906295 
L 248.848326 -154.718763 
L 250.743492 -154.483258 
L 252.638658 -154.19019 
L 254.533824 -153.836948 
L 256.42899 -153.428534 
L 258.324156 -152.974999 
L 260.219321 -152.487112 
L 262.114487 -151.972877 
L 264.009653 -151.437085 
L 265.904819 -150.884359 
L 267.799985 -150.324056 
L 269.695151 -149.774279 
L 271.590316 -149.262428 
L 273.485482 -148.821236 
L 275.380648 -148.481287 
L 277.275814 -148.262898 
L 279.17098 -148.170987 
L 281.066146 -148.195628 
L 282.961312 -148.318482 
L 284.856477 -148.522354 
L 286.751643 -148.799231 
L 288.646809 -149.152517 
L 290.541975 -149.591865 
L 292.437141 -150.122826 
L 294.332307 -150.736493 
L 296.227473 -151.404642 
L 298.122638 -152.083284 
L 300.017804 -152.723407 
L 301.91297 -153.28422 
L 303.808136 -153.743299 
L 305.703302 -154.099814 
L 307.598468 -154.370336 
L 309.493634 -154.57982 
L 311.388799 -154.751929 
L 313.283965 -154.902423 
L 315.179131 -155.037492 
L 317.074297 -155.156502 
L 318.969463 -155.25687 
L 320.864629 -155.338305 
L 322.759795 -155.404494 
L 324.65496 -155.461957 
L 326.550126 -155.517249 
L 328.445292 -155.574358 
L 330.340458 -155.633714 
L 332.235624 -155.693115 
L 334.13079 -155.749746 
L 336.025956 -155.801956 
L 337.921121 -155.849852 
L 339.816287 -155.894632 
L 341.711453 -155.937364 
L 341.711453 -156.3204 
L 341.711453 -156.3204 
L 339.816287 -156.363131 
L 337.921121 -156.407911 
L 336.025956 -156.455807 
L 334.13079 -156.508017 
L 332.235624 -156.564649 
L 330.340458 -156.624049 
L 328.445292 -156.683405 
L 326.550126 -156.740514 
L 324.65496 -156.795807 
L 322.759795 -156.853269 
L 320.864629 -156.919458 
L 318.969463 -157.000893 
L 317.074297 -157.101261 
L 315.179131 -157.220271 
L 313.283965 -157.35534 
L 311.388799 -157.505834 
L 309.493634 -157.677943 
L 307.598468 -157.887427 
L 305.703302 -158.157949 
L 303.808136 -158.514464 
L 301.91297 -158.973543 
L 300.017804 -159.534356 
L 298.122638 -160.174479 
L 296.227473 -160.853121 
L 294.332307 -161.52127 
L 292.437141 -162.134937 
L 290.541975 -162.665899 
L 288.646809 -163.105246 
L 286.751643 -163.458533 
L 284.856477 -163.735409 
L 282.961312 -163.939281 
L 281.066146 -164.062135 
L 279.17098 -164.086776 
L 277.275814 -163.994866 
L 275.380648 -163.776476 
L 273.485482 -163.436528 
L 271.590316 -162.995335 
L 269.695151 -162.483484 
L 267.799985 -161.933707 
L 265.904819 -161.373404 
L 264.009653 -160.820678 
L 262.114487 -160.284886 
L 260.219321 -159.770651 
L 258.324156 -159.282764 
L 256.42899 -158.829229 
L 254.533824 -158.420815 
L 252.638658 -158.067574 
L 250.743492 -157.774506 
L 248.848326 -157.539 
L 246.95316 -157.351468 
L 245.057995 -157.198733 
L 243.162829 -157.068347 
L 241.267663 -156.951874 
L 239.372497 -156.846063 
L 237.477331 -156.752013 
L 235.582165 -156.673178 
L 233.686999 -156.613225 
L 231.791834 -156.574415 
L 229.896668 -156.556746 
L 228.001502 -156.557745 
L 226.106336 -156.572721 
L 224.21117 -156.595334 
L 222.316004 -156.61844 
L 220.420838 -156.635127 
L 218.525673 -156.639819 
L 216.630507 -156.629206 
L 214.735341 -156.602781 
L 212.840175 -156.562822 
L 210.945009 -156.513764 
L 209.049843 -156.461083 
L 207.154677 -156.409943 
L 205.259512 -156.364022 
L 203.364346 -156.324899 
L 201.46918 -156.292208 
L 199.574014 -156.264437 
L 197.678848 -156.239987 
L 195.783682 -156.21801 
L 193.888516 -156.198725 
L 191.993351 -156.183169 
L 190.098185 -156.172634 
L 188.203019 -156.16805 
L 186.307853 -156.169574 
L 184.412687 -156.176424 
L 182.517521 -156.186989 
L 180.622355 -156.199144 
L 178.72719 -156.21072 
L 176.832024 -156.21999 
L 174.936858 -156.226022 
L 173.041692 -156.228774 
L 171.146526 -156.228898 
L 169.25136 -156.227365 
L 167.356194 -156.225074 
L 165.461029 -156.22258 
L 163.565863 -156.220009 
L 161.670697 -156.217111 
L 159.775531 -156.213405 
L 157.880365 -156.208367 
L 155.985199 -156.201624 
L 154.090033 -156.193111 
z
" style="stroke: #000000; stroke-opacity: 0.5"/>
    </defs>
    <g clip-path="url(#p6650d425cf)">
     <use xlink:href="#m984a3c9f1e" x="0" y="392.514375" style="fill: #1f77b4; fill-opacity: 0.5; stroke: #000000; stroke-opacity: 0.5"/>
    </g>
   </g>
   <g id="PolyCollection_5">
    <defs>
     <path id="m04f0f0a09b" d="M 171.462387 -188.056231 
L 171.462387 -187.86469 
L 172.936405 -187.856187 
L 174.410423 -187.84936 
L 175.884441 -187.844071 
L 177.358459 -187.840023 
L 178.832477 -187.836882 
L 180.306494 -187.83439 
L 181.780512 -187.832418 
L 183.25453 -187.83095 
L 184.728548 -187.830011 
L 186.202566 -187.829562 
L 187.676584 -187.829434 
L 189.150602 -187.829303 
L 190.62462 -187.828725 
L 192.098638 -187.827187 
L 193.572655 -187.824152 
L 195.046673 -187.819048 
L 196.520691 -187.811213 
L 197.994709 -187.799819 
L 199.468727 -187.783822 
L 200.942745 -187.761985 
L 202.416763 -187.732999 
L 203.890781 -187.695697 
L 205.364799 -187.649324 
L 206.838816 -187.593787 
L 208.312834 -187.529849 
L 209.786852 -187.459182 
L 211.26087 -187.384275 
L 212.734888 -187.308201 
L 214.208906 -187.234264 
L 215.682924 -187.165601 
L 217.156942 -187.104811 
L 218.63096 -187.053691 
L 220.104977 -187.013126 
L 221.578995 -186.98316 
L 223.053013 -186.96321 
L 224.527031 -186.952335 
L 226.001049 -186.949473 
L 227.475067 -186.95354 
L 228.949085 -186.963373 
L 230.423103 -186.977537 
L 231.897121 -186.994113 
L 233.371138 -187.010581 
L 234.845156 -187.023898 
L 236.319174 -187.030778 
L 237.793192 -187.02811 
L 239.26721 -187.013391 
L 240.741228 -186.985009 
L 242.215246 -186.942284 
L 243.689264 -186.885226 
L 245.163282 -186.814082 
L 246.637299 -186.728788 
L 248.111317 -186.628499 
L 249.585335 -186.511349 
L 251.059353 -186.374516 
L 252.533371 -186.214589 
L 254.007389 -186.028133 
L 255.481407 -185.812248 
L 256.955425 -185.564951 
L 258.429443 -185.285255 
L 259.90346 -184.972949 
L 261.377478 -184.628252 
L 262.851496 -184.251571 
L 264.325514 -183.843635 
L 265.799532 -183.406126 
L 267.27355 -182.94276 
L 268.747568 -182.460548 
L 270.221586 -181.970876 
L 271.695603 -181.489982 
L 273.169621 -181.03857 
L 274.643639 -180.640466 
L 276.117657 -180.320462 
L 277.591675 -180.101631 
L 279.065693 -180.002566 
L 280.539711 -180.034956 
L 282.013729 -180.201938 
L 283.487747 -180.497485 
L 284.961764 -180.906962 
L 286.435782 -181.408728 
L 287.9098 -181.976509 
L 289.383818 -182.582087 
L 290.857836 -183.197893 
L 292.331854 -183.799156 
L 293.805872 -184.365441 
L 295.27989 -184.881569 
L 296.753908 -185.337993 
L 298.227925 -185.730713 
L 299.701943 -186.060788 
L 301.175961 -186.33345 
L 302.649979 -186.556886 
L 304.123997 -186.740792 
L 305.598015 -186.894911 
L 307.072033 -187.027788 
L 308.546051 -187.145961 
L 310.020069 -187.25368 
L 311.494086 -187.353114 
L 312.968104 -187.4449 
L 314.442122 -187.528805 
L 315.91614 -187.60433 
L 317.390158 -187.671108 
L 317.390158 -188.249813 
L 317.390158 -188.249813 
L 315.91614 -188.316591 
L 314.442122 -188.392116 
L 312.968104 -188.476021 
L 311.494086 -188.567807 
L 310.020069 -188.667241 
L 308.546051 -188.77496 
L 307.072033 -188.893133 
L 305.598015 -189.02601 
L 304.123997 -189.180129 
L 302.649979 -189.364035 
L 301.175961 -189.587471 
L 299.701943 -189.860133 
L 298.227925 -190.190208 
L 296.753908 -190.582929 
L 295.27989 -191.039352 
L 293.805872 -191.55548 
L 292.331854 -192.121765 
L 290.857836 -192.723028 
L 289.383818 -193.338834 
L 287.9098 -193.944412 
L 286.435782 -194.512193 
L 284.961764 -195.013959 
L 283.487747 -195.423436 
L 282.013729 -195.718983 
L 280.539711 -195.885965 
L 279.065693 -195.918355 
L 277.591675 -195.81929 
L 276.117657 -195.600459 
L 274.643639 -195.280455 
L 273.169621 -194.882351 
L 271.695603 -194.430939 
L 270.221586 -193.950045 
L 268.747568 -193.460373 
L 267.27355 -192.978161 
L 265.799532 -192.514795 
L 264.325514 -192.077286 
L 262.851496 -191.66935 
L 261.377478 -191.292669 
L 259.90346 -190.947972 
L 258.429443 -190.635666 
L 256.955425 -190.35597 
L 255.481407 -190.108673 
L 254.007389 -189.892788 
L 252.533371 -189.706332 
L 251.059353 -189.546406 
L 249.585335 -189.409572 
L 248.111317 -189.292422 
L 246.637299 -189.192133 
L 245.163282 -189.106839 
L 243.689264 -189.035695 
L 242.215246 -188.978638 
L 240.741228 -188.935912 
L 239.26721 -188.90753 
L 237.793192 -188.892811 
L 236.319174 -188.890143 
L 234.845156 -188.897023 
L 233.371138 -188.91034 
L 231.897121 -188.926808 
L 230.423103 -188.943384 
L 228.949085 -188.957548 
L 227.475067 -188.967381 
L 226.001049 -188.971449 
L 224.527031 -188.968586 
L 223.053013 -188.957711 
L 221.578995 -188.937761 
L 220.104977 -188.907795 
L 218.63096 -188.86723 
L 217.156942 -188.81611 
L 215.682924 -188.75532 
L 214.208906 -188.686657 
L 212.734888 -188.61272 
L 211.26087 -188.536646 
L 209.786852 -188.46174 
L 208.312834 -188.391072 
L 206.838816 -188.327134 
L 205.364799 -188.271597 
L 203.890781 -188.225224 
L 202.416763 -188.187922 
L 200.942745 -188.158936 
L 199.468727 -188.137099 
L 197.994709 -188.121102 
L 196.520691 -188.109708 
L 195.046673 -188.101873 
L 193.572655 -188.096769 
L 192.098638 -188.093734 
L 190.62462 -188.092196 
L 189.150602 -188.091618 
L 187.676584 -188.091487 
L 186.202566 -188.091359 
L 184.728548 -188.09091 
L 183.25453 -188.089971 
L 181.780512 -188.088504 
L 180.306494 -188.086531 
L 178.832477 -188.084039 
L 177.358459 -188.080898 
L 175.884441 -188.07685 
L 174.410423 -188.071561 
L 172.936405 -188.064734 
L 171.462387 -188.056231 
z
" style="stroke: #000000; stroke-opacity: 0.5"/>
    </defs>
    <g clip-path="url(#p6650d425cf)">
     <use xlink:href="#m04f0f0a09b" x="0" y="392.514375" style="fill: #1f77b4; fill-opacity: 0.5; stroke: #000000; stroke-opacity: 0.5"/>
    </g>
   </g>
   <g id="PolyCollection_6">
    <defs>
     <path id="m2ba20f1f27" d="M 105.447443 -219.872325 
L 105.447443 -219.711754 
L 107.728661 -219.708166 
L 110.00988 -219.715475 
L 112.291098 -219.72944 
L 114.572316 -219.743514 
L 116.853534 -219.752552 
L 119.134752 -219.755161 
L 121.41597 -219.753448 
L 123.697188 -219.750775 
L 125.978407 -219.749322 
L 128.259625 -219.749095 
L 130.540843 -219.748687 
L 132.822061 -219.746693 
L 135.103279 -219.742559 
L 137.384497 -219.736586 
L 139.665716 -219.7295 
L 141.946934 -219.721915 
L 144.228152 -219.713846 
L 146.50937 -219.704702 
L 148.790588 -219.694119 
L 151.071806 -219.683025 
L 153.353025 -219.673567 
L 155.634243 -219.667587 
L 157.915461 -219.664929 
L 160.196679 -219.663038 
L 162.477897 -219.658013 
L 164.759115 -219.646539 
L 167.040333 -219.628027 
L 169.321552 -219.605651 
L 171.60277 -219.584709 
L 173.883988 -219.5687 
L 176.165206 -219.556262 
L 178.446424 -219.541853 
L 180.727642 -219.519849 
L 183.008861 -219.489075 
L 185.290079 -219.454493 
L 187.571297 -219.424337 
L 189.852515 -219.404196 
L 192.133733 -219.392307 
L 194.414951 -219.3797 
L 196.69617 -219.35494 
L 198.977388 -219.310337 
L 201.258606 -219.246842 
L 203.539824 -219.175464 
L 205.821042 -219.11284 
L 208.10226 -219.071394 
L 210.383479 -219.050224 
L 212.664697 -219.034033 
L 214.945915 -219.001178 
L 217.227133 -218.935489 
L 219.508351 -218.835504 
L 221.789569 -218.716205 
L 224.070787 -218.600401 
L 226.352006 -218.502104 
L 228.633224 -218.411639 
L 230.914442 -218.294567 
L 233.19566 -218.109227 
L 235.476878 -217.833965 
L 237.758096 -217.484071 
L 240.039315 -217.101237 
L 242.320533 -216.720699 
L 244.601751 -216.344922 
L 246.882969 -215.947191 
L 249.164187 -215.497258 
L 251.445405 -214.984856 
L 253.726624 -214.42948 
L 256.007842 -213.877182 
L 258.28906 -213.383494 
L 260.570278 -212.985624 
L 262.851496 -212.681533 
L 265.132714 -212.43523 
L 267.413932 -212.207571 
L 269.695151 -211.992956 
L 271.976369 -211.839449 
L 274.257587 -211.834145 
L 276.538805 -212.050707 
L 278.820023 -212.492097 
L 281.101241 -213.080657 
L 283.38246 -213.707746 
L 285.663678 -214.298199 
L 287.944896 -214.840183 
L 290.226114 -215.368663 
L 292.507332 -215.921673 
L 294.78855 -216.501133 
L 297.069769 -217.066752 
L 299.350987 -217.565716 
L 301.632205 -217.969283 
L 303.913423 -218.285061 
L 306.194641 -218.542236 
L 308.475859 -218.770023 
L 310.757078 -218.985241 
L 313.038296 -219.189779 
L 315.319514 -219.37414 
L 317.600732 -219.525341 
L 319.88195 -219.635675 
L 322.163168 -219.706753 
L 324.444386 -219.747157 
L 326.725605 -219.767446 
L 329.006823 -219.776599 
L 331.288041 -219.780785 
L 331.288041 -219.803294 
L 331.288041 -219.803294 
L 329.006823 -219.80748 
L 326.725605 -219.816633 
L 324.444386 -219.836922 
L 322.163168 -219.877325 
L 319.88195 -219.948404 
L 317.600732 -220.058738 
L 315.319514 -220.209939 
L 313.038296 -220.3943 
L 310.757078 -220.598838 
L 308.475859 -220.814056 
L 306.194641 -221.041843 
L 303.913423 -221.299018 
L 301.632205 -221.614796 
L 299.350987 -222.018362 
L 297.069769 -222.517327 
L 294.78855 -223.082946 
L 292.507332 -223.662406 
L 290.226114 -224.215416 
L 287.944896 -224.743896 
L 285.663678 -225.28588 
L 283.38246 -225.876333 
L 281.101241 -226.503421 
L 278.820023 -227.091982 
L 276.538805 -227.533372 
L 274.257587 -227.749934 
L 271.976369 -227.74463 
L 269.695151 -227.591123 
L 267.413932 -227.376507 
L 265.132714 -227.148849 
L 262.851496 -226.902546 
L 260.570278 -226.598455 
L 258.28906 -226.200585 
L 256.007842 -225.706897 
L 253.726624 -225.154598 
L 251.445405 -224.599223 
L 249.164187 -224.086821 
L 246.882969 -223.636888 
L 244.601751 -223.239157 
L 242.320533 -222.86338 
L 240.039315 -222.482842 
L 237.758096 -222.100008 
L 235.476878 -221.750114 
L 233.19566 -221.474852 
L 230.914442 -221.289512 
L 228.633224 -221.17244 
L 226.352006 -221.081974 
L 224.070787 -220.983678 
L 221.789569 -220.867874 
L 219.508351 -220.748575 
L 217.227133 -220.64859 
L 214.945915 -220.582901 
L 212.664697 -220.550046 
L 210.383479 -220.533855 
L 208.10226 -220.512685 
L 205.821042 -220.471239 
L 203.539824 -220.408614 
L 201.258606 -220.337236 
L 198.977388 -220.273742 
L 196.69617 -220.229139 
L 194.414951 -220.204379 
L 192.133733 -220.191772 
L 189.852515 -220.179883 
L 187.571297 -220.159742 
L 185.290079 -220.129586 
L 183.008861 -220.095004 
L 180.727642 -220.06423 
L 178.446424 -220.042226 
L 176.165206 -220.027817 
L 173.883988 -220.015379 
L 171.60277 -219.99937 
L 169.321552 -219.978428 
L 167.040333 -219.956052 
L 164.759115 -219.937539 
L 162.477897 -219.926066 
L 160.196679 -219.921041 
L 157.915461 -219.91915 
L 155.634243 -219.916492 
L 153.353025 -219.910512 
L 151.071806 -219.901054 
L 148.790588 -219.88996 
L 146.50937 -219.879377 
L 144.228152 -219.870233 
L 141.946934 -219.862164 
L 139.665716 -219.854579 
L 137.384497 -219.847493 
L 135.103279 -219.84152 
L 132.822061 -219.837386 
L 130.540843 -219.835392 
L 128.259625 -219.834984 
L 125.978407 -219.834757 
L 123.697188 -219.833304 
L 121.41597 -219.830631 
L 119.134752 -219.828918 
L 116.853534 -219.831527 
L 114.572316 -219.840565 
L 112.291098 -219.854639 
L 110.00988 -219.868604 
L 107.728661 -219.875913 
L 105.447443 -219.872325 
z
" style="stroke: #000000; stroke-opacity: 0.5"/>
    </defs>
    <g clip-path="url(#p6650d425cf)">
     <use xlink:href="#m2ba20f1f27" x="0" y="392.514375" style="fill: #1f77b4; fill-opacity: 0.5; stroke: #000000; stroke-opacity: 0.5"/>
    </g>
   </g>
   <g id="PolyCollection_7">
    <defs>
     <path id="mc4a98db664" d="M 108.921914 -251.781808 
L 108.921914 -251.465429 
L 111.238228 -251.432688 
L 113.554542 -251.394976 
L 115.870855 -251.351943 
L 118.187169 -251.3035 
L 120.503483 -251.249947 
L 122.819797 -251.192074 
L 125.136111 -251.131202 
L 127.452425 -251.069139 
L 129.768738 -251.008048 
L 132.085052 -250.950241 
L 134.401366 -250.897929 
L 136.71768 -250.852983 
L 139.033994 -250.81673 
L 141.350307 -250.789831 
L 143.666621 -250.772231 
L 145.982935 -250.76318 
L 148.299249 -250.761297 
L 150.615563 -250.764669 
L 152.931877 -250.770957 
L 155.24819 -250.777525 
L 157.564504 -250.781585 
L 159.880818 -250.780383 
L 162.197132 -250.771397 
L 164.513446 -250.752545 
L 166.829759 -250.722368 
L 169.146073 -250.680146 
L 171.462387 -250.625917 
L 173.778701 -250.560403 
L 176.095015 -250.484828 
L 178.411329 -250.400686 
L 180.727642 -250.309495 
L 183.043956 -250.212601 
L 185.36027 -250.111065 
L 187.676584 -250.005655 
L 189.992898 -249.896927 
L 192.309212 -249.785352 
L 194.625525 -249.671441 
L 196.941839 -249.555812 
L 199.258153 -249.439183 
L 201.574467 -249.322281 
L 203.890781 -249.205725 
L 206.207094 -249.089903 
L 208.523408 -248.974917 
L 210.839722 -248.860586 
L 213.156036 -248.746514 
L 215.47235 -248.632185 
L 217.788664 -248.517036 
L 220.104977 -248.400472 
L 222.421291 -248.281816 
L 224.737605 -248.160203 
L 227.053919 -248.034449 
L 229.370233 -247.902941 
L 231.686547 -247.763589 
L 234.00286 -247.613853 
L 236.319174 -247.450877 
L 238.635488 -247.271716 
L 240.951802 -247.07366 
L 243.268116 -246.854611 
L 245.584429 -246.613489 
L 247.900743 -246.350608 
L 250.217057 -246.067958 
L 252.533371 -245.769367 
L 254.849685 -245.460489 
L 257.165999 -245.14865 
L 259.482312 -244.842549 
L 261.798626 -244.551856 
L 264.11494 -244.286736 
L 266.431254 -244.057312 
L 268.747568 -243.873094 
L 271.063882 -243.742395 
L 273.380195 -243.671798 
L 275.696509 -243.665724 
L 278.012823 -243.726177 
L 280.329137 -243.852712 
L 282.645451 -244.042609 
L 284.961764 -244.291207 
L 287.278078 -244.592315 
L 289.594392 -244.93862 
L 291.910706 -245.322021 
L 294.22702 -245.733901 
L 296.543334 -246.165347 
L 298.859647 -246.607382 
L 301.175961 -247.051235 
L 303.492275 -247.488677 
L 305.808589 -247.91236 
L 308.124903 -248.316144 
L 310.441217 -248.695317 
L 312.75753 -249.046691 
L 315.073844 -249.368553 
L 317.390158 -249.66049 
L 319.706472 -249.923128 
L 322.022786 -250.157849 
L 324.339099 -250.366504 
L 326.655413 -250.551188 
L 328.971727 -250.714051 
L 331.288041 -250.85718 
L 333.604355 -250.982525 
L 335.920669 -251.091856 
L 338.236982 -251.186759 
L 338.236982 -252.060478 
L 338.236982 -252.060478 
L 335.920669 -252.15538 
L 333.604355 -252.264712 
L 331.288041 -252.390056 
L 328.971727 -252.533186 
L 326.655413 -252.696049 
L 324.339099 -252.880732 
L 322.022786 -253.089388 
L 319.706472 -253.324109 
L 317.390158 -253.586747 
L 315.073844 -253.878684 
L 312.75753 -254.200546 
L 310.441217 -254.55192 
L 308.124903 -254.931093 
L 305.808589 -255.334876 
L 303.492275 -255.75856 
L 301.175961 -256.196002 
L 298.859647 -256.639855 
L 296.543334 -257.081889 
L 294.22702 -257.513336 
L 291.910706 -257.925216 
L 289.594392 -258.308617 
L 287.278078 -258.654922 
L 284.961764 -258.95603 
L 282.645451 -259.204627 
L 280.329137 -259.394524 
L 278.012823 -259.52106 
L 275.696509 -259.581513 
L 273.380195 -259.575438 
L 271.063882 -259.504842 
L 268.747568 -259.374143 
L 266.431254 -259.189925 
L 264.11494 -258.960501 
L 261.798626 -258.695381 
L 259.482312 -258.404688 
L 257.165999 -258.098587 
L 254.849685 -257.786748 
L 252.533371 -257.47787 
L 250.217057 -257.179278 
L 247.900743 -256.896629 
L 245.584429 -256.633748 
L 243.268116 -256.392626 
L 240.951802 -256.173577 
L 238.635488 -255.975521 
L 236.319174 -255.79636 
L 234.00286 -255.633383 
L 231.686547 -255.483647 
L 229.370233 -255.344296 
L 227.053919 -255.212788 
L 224.737605 -255.087034 
L 222.421291 -254.96542 
L 220.104977 -254.846765 
L 217.788664 -254.730201 
L 215.47235 -254.615052 
L 213.156036 -254.500723 
L 210.839722 -254.386651 
L 208.523408 -254.27232 
L 206.207094 -254.157334 
L 203.890781 -254.041512 
L 201.574467 -253.924956 
L 199.258153 -253.808054 
L 196.941839 -253.691425 
L 194.625525 -253.575796 
L 192.309212 -253.461885 
L 189.992898 -253.35031 
L 187.676584 -253.241582 
L 185.36027 -253.136172 
L 183.043956 -253.034636 
L 180.727642 -252.937742 
L 178.411329 -252.846551 
L 176.095015 -252.762409 
L 173.778701 -252.686834 
L 171.462387 -252.62132 
L 169.146073 -252.567091 
L 166.829759 -252.524868 
L 164.513446 -252.494692 
L 162.197132 -252.47584 
L 159.880818 -252.466854 
L 157.564504 -252.465652 
L 155.24819 -252.469712 
L 152.931877 -252.476279 
L 150.615563 -252.482567 
L 148.299249 -252.485939 
L 145.982935 -252.484057 
L 143.666621 -252.475005 
L 141.350307 -252.457406 
L 139.033994 -252.430507 
L 136.71768 -252.394254 
L 134.401366 -252.349308 
L 132.085052 -252.296996 
L 129.768738 -252.239188 
L 127.452425 -252.178098 
L 125.136111 -252.116035 
L 122.819797 -252.055163 
L 120.503483 -251.99729 
L 118.187169 -251.943737 
L 115.870855 -251.895294 
L 113.554542 -251.852261 
L 111.238228 -251.814548 
L 108.921914 -251.781808 
z
" style="stroke: #000000; stroke-opacity: 0.5"/>
    </defs>
    <g clip-path="url(#p6650d425cf)">
     <use xlink:href="#mc4a98db664" x="0" y="392.514375" style="fill: #1f77b4; fill-opacity: 0.5; stroke: #000000; stroke-opacity: 0.5"/>
    </g>
   </g>
   <g id="PolyCollection_8">
    <defs>
     <path id="mcc5558078c" d="M 174.936858 -283.933707 
L 174.936858 -282.976688 
L 175.779154 -282.976184 
L 176.62145 -282.978778 
L 177.463746 -282.984196 
L 178.306042 -282.992062 
L 179.148338 -283.001901 
L 179.990633 -283.013155 
L 180.832929 -283.025197 
L 181.675225 -283.037346 
L 182.517521 -283.048888 
L 183.359817 -283.059097 
L 184.202113 -283.067253 
L 185.044409 -283.072665 
L 185.886705 -283.074689 
L 186.729001 -283.07275 
L 187.571297 -283.066354 
L 188.413593 -283.055102 
L 189.255889 -283.038708 
L 190.098185 -283.016997 
L 190.940481 -282.989918 
L 191.782777 -282.95754 
L 192.625073 -282.92005 
L 193.467368 -282.877746 
L 194.309664 -282.831025 
L 195.15196 -282.780371 
L 195.994256 -282.726336 
L 196.836552 -282.669517 
L 197.678848 -282.610538 
L 198.521144 -282.550023 
L 199.36344 -282.488572 
L 200.205736 -282.426741 
L 201.048032 -282.365016 
L 201.890328 -282.303797 
L 202.732624 -282.243383 
L 203.57492 -282.183955 
L 204.417216 -282.125577 
L 205.259512 -282.068186 
L 206.101807 -282.011596 
L 206.944103 -281.955504 
L 207.786399 -281.899496 
L 208.628695 -281.84306 
L 209.470991 -281.785594 
L 210.313287 -281.726423 
L 211.155583 -281.664804 
L 211.997879 -281.599945 
L 212.840175 -281.531008 
L 213.682471 -281.457125 
L 214.524767 -281.377397 
L 215.367063 -281.290911 
L 216.209359 -281.196744 
L 217.051655 -281.093976 
L 217.893951 -280.981702 
L 218.736247 -280.859051 
L 219.578542 -280.725208 
L 220.420838 -280.57944 
L 221.263134 -280.421124 
L 222.10543 -280.24979 
L 222.947726 -280.06515 
L 223.790022 -279.867142 
L 224.632318 -279.655966 
L 225.474614 -279.432118 
L 226.31691 -279.196418 
L 227.159206 -278.950033 
L 228.001502 -278.694483 
L 228.843798 -278.431645 
L 229.686094 -278.163734 
L 230.52839 -277.893277 
L 231.370686 -277.623071 
L 232.212982 -277.35613 
L 233.055277 -277.095627 
L 233.897573 -276.844813 
L 234.739869 -276.606951 
L 235.582165 -276.38523 
L 236.424461 -276.182695 
L 237.266757 -276.002169 
L 238.109053 -275.846189 
L 238.951349 -275.716952 
L 239.793645 -275.616271 
L 240.635941 -275.545537 
L 241.478237 -275.505709 
L 242.320533 -275.497303 
L 243.162829 -275.520398 
L 244.005125 -275.574656 
L 244.847421 -275.659348 
L 245.689716 -275.773386 
L 246.532012 -275.915364 
L 247.374308 -276.083598 
L 248.216604 -276.276172 
L 249.0589 -276.49098 
L 249.901196 -276.725767 
L 250.743492 -276.978168 
L 251.585788 -277.245743 
L 252.428084 -277.52601 
L 253.27038 -277.816475 
L 254.112676 -278.114656 
L 254.954972 -278.418105 
L 255.797268 -278.724434 
L 256.639564 -279.031329 
L 257.48186 -279.336576 
L 258.324156 -279.638071 
L 258.324156 -287.272324 
L 258.324156 -287.272324 
L 257.48186 -287.573819 
L 256.639564 -287.879065 
L 255.797268 -288.185961 
L 254.954972 -288.492289 
L 254.112676 -288.795739 
L 253.27038 -289.093919 
L 252.428084 -289.384385 
L 251.585788 -289.664652 
L 250.743492 -289.932227 
L 249.901196 -290.184627 
L 249.0589 -290.419414 
L 248.216604 -290.634222 
L 247.374308 -290.826797 
L 246.532012 -290.995031 
L 245.689716 -291.137008 
L 244.847421 -291.251046 
L 244.005125 -291.335739 
L 243.162829 -291.389997 
L 242.320533 -291.413092 
L 241.478237 -291.404686 
L 240.635941 -291.364858 
L 239.793645 -291.294124 
L 238.951349 -291.193442 
L 238.109053 -291.064206 
L 237.266757 -290.908226 
L 236.424461 -290.7277 
L 235.582165 -290.525165 
L 234.739869 -290.303444 
L 233.897573 -290.065582 
L 233.055277 -289.814768 
L 232.212982 -289.554264 
L 231.370686 -289.287324 
L 230.52839 -289.017118 
L 229.686094 -288.74666 
L 228.843798 -288.478749 
L 228.001502 -288.215912 
L 227.159206 -287.960362 
L 226.31691 -287.713977 
L 225.474614 -287.478277 
L 224.632318 -287.254428 
L 223.790022 -287.043252 
L 222.947726 -286.845245 
L 222.10543 -286.660605 
L 221.263134 -286.489271 
L 220.420838 -286.330955 
L 219.578542 -286.185186 
L 218.736247 -286.051343 
L 217.893951 -285.928693 
L 217.051655 -285.816419 
L 216.209359 -285.713651 
L 215.367063 -285.619484 
L 214.524767 -285.532998 
L 213.682471 -285.45327 
L 212.840175 -285.379386 
L 211.997879 -285.31045 
L 211.155583 -285.245591 
L 210.313287 -285.183972 
L 209.470991 -285.1248 
L 208.628695 -285.067335 
L 207.786399 -285.010899 
L 206.944103 -284.954891 
L 206.101807 -284.898799 
L 205.259512 -284.842209 
L 204.417216 -284.784818 
L 203.57492 -284.72644 
L 202.732624 -284.667012 
L 201.890328 -284.606597 
L 201.048032 -284.545379 
L 200.205736 -284.483654 
L 199.36344 -284.421823 
L 198.521144 -284.360372 
L 197.678848 -284.299857 
L 196.836552 -284.240878 
L 195.994256 -284.184059 
L 195.15196 -284.130024 
L 194.309664 -284.07937 
L 193.467368 -284.032649 
L 192.625073 -283.990345 
L 191.782777 -283.952854 
L 190.940481 -283.920476 
L 190.098185 -283.893398 
L 189.255889 -283.871687 
L 188.413593 -283.855293 
L 187.571297 -283.844041 
L 186.729001 -283.837644 
L 185.886705 -283.835705 
L 185.044409 -283.83773 
L 184.202113 -283.843142 
L 183.359817 -283.851298 
L 182.517521 -283.861506 
L 181.675225 -283.873049 
L 180.832929 -283.885198 
L 179.990633 -283.897239 
L 179.148338 -283.908494 
L 178.306042 -283.918333 
L 177.463746 -283.926198 
L 176.62145 -283.931617 
L 175.779154 -283.934211 
L 174.936858 -283.933707 
z
" style="stroke: #000000; stroke-opacity: 0.5"/>
    </defs>
    <g clip-path="url(#p6650d425cf)">
     <use xlink:href="#mcc5558078c" x="0" y="392.514375" style="fill: #1f77b4; fill-opacity: 0.5; stroke: #000000; stroke-opacity: 0.5"/>
    </g>
   </g>
   <g id="PolyCollection_9">
    <defs>
     <path id="ma32d74c0d6" d="M 105.447443 -315.556504 
L 105.447443 -315.017049 
L 107.588279 -314.979373 
L 109.729114 -314.941934 
L 111.86995 -314.903314 
L 114.010785 -314.861545 
L 116.151621 -314.814645 
L 118.292456 -314.761151 
L 120.433292 -314.700504 
L 122.574127 -314.633209 
L 124.714963 -314.560773 
L 126.855798 -314.48547 
L 128.996634 -314.40999 
L 131.137469 -314.337015 
L 133.278305 -314.268764 
L 135.41914 -314.2066 
L 137.559976 -314.15081 
L 139.700811 -314.100693 
L 141.841647 -314.054981 
L 143.982482 -314.01249 
L 146.123318 -313.972793 
L 148.264153 -313.936607 
L 150.404989 -313.905742 
L 152.545824 -313.882587 
L 154.68666 -313.86933 
L 156.827495 -313.86718 
L 158.968331 -313.875873 
L 161.109166 -313.893561 
L 163.250002 -313.917048 
L 165.390837 -313.942236 
L 167.531673 -313.964614 
L 169.672508 -313.979715 
L 171.813344 -313.983531 
L 173.954179 -313.972923 
L 176.095015 -313.946032 
L 178.23585 -313.902601 
L 180.376686 -313.84404 
L 182.517521 -313.77309 
L 184.658357 -313.693037 
L 186.799192 -313.606645 
L 188.940028 -313.515138 
L 191.080863 -313.417591 
L 193.221699 -313.310982 
L 195.362534 -313.190852 
L 197.50337 -313.052262 
L 199.644205 -312.890592 
L 201.785041 -312.701831 
L 203.925876 -312.482346 
L 206.066712 -312.228452 
L 208.207547 -311.936318 
L 210.348383 -311.602636 
L 212.489218 -311.226072 
L 214.630054 -310.809065 
L 216.770889 -310.35921 
L 218.911725 -309.889505 
L 221.05256 -309.417166 
L 223.193396 -308.961298 
L 225.334231 -308.540196 
L 227.475067 -308.169156 
L 229.615902 -307.85937 
L 231.756738 -307.617949 
L 233.897573 -307.448625 
L 236.038409 -307.352558 
L 238.179244 -307.328882 
L 240.32008 -307.375061 
L 242.460915 -307.4874 
L 244.601751 -307.66201 
L 246.742586 -307.896163 
L 248.883422 -308.189478 
L 251.024257 -308.544177 
L 253.165093 -308.963871 
L 255.305928 -309.450911 
L 257.446764 -310.003077 
L 259.587599 -310.610796 
L 261.728435 -311.256048 
L 263.86927 -311.913595 
L 266.010106 -312.554333 
L 268.150941 -313.149865 
L 270.291777 -313.676974 
L 272.432612 -314.120827 
L 274.573448 -314.476176 
L 276.714283 -314.746569 
L 278.855119 -314.942077 
L 280.995954 -315.076386 
L 283.13679 -315.164035 
L 285.277625 -315.218358 
L 287.418461 -315.250308 
L 289.559296 -315.268093 
L 291.700132 -315.277375 
L 293.840967 -315.281764 
L 295.981803 -315.283381 
L 298.122638 -315.283369 
L 300.263474 -315.282283 
L 302.404309 -315.280384 
L 304.545145 -315.277826 
L 306.68598 -315.274783 
L 308.826816 -315.271509 
L 310.967651 -315.268347 
L 313.108487 -315.265693 
L 315.249322 -315.26392 
L 317.390158 -315.263297 
L 317.390158 -315.310256 
L 317.390158 -315.310256 
L 315.249322 -315.309632 
L 313.108487 -315.307859 
L 310.967651 -315.305206 
L 308.826816 -315.302044 
L 306.68598 -315.29877 
L 304.545145 -315.295727 
L 302.404309 -315.293169 
L 300.263474 -315.29127 
L 298.122638 -315.290184 
L 295.981803 -315.290171 
L 293.840967 -315.291789 
L 291.700132 -315.296178 
L 289.559296 -315.30546 
L 287.418461 -315.323244 
L 285.277625 -315.355194 
L 283.13679 -315.409518 
L 280.995954 -315.497167 
L 278.855119 -315.631475 
L 276.714283 -315.826984 
L 274.573448 -316.097377 
L 272.432612 -316.452726 
L 270.291777 -316.896578 
L 268.150941 -317.423688 
L 266.010106 -318.01922 
L 263.86927 -318.659958 
L 261.728435 -319.317505 
L 259.587599 -319.962757 
L 257.446764 -320.570475 
L 255.305928 -321.122642 
L 253.165093 -321.609682 
L 251.024257 -322.029376 
L 248.883422 -322.384075 
L 246.742586 -322.67739 
L 244.601751 -322.911543 
L 242.460915 -323.086153 
L 240.32008 -323.198491 
L 238.179244 -323.244671 
L 236.038409 -323.220995 
L 233.897573 -323.124928 
L 231.756738 -322.955604 
L 229.615902 -322.714183 
L 227.475067 -322.404397 
L 225.334231 -322.033357 
L 223.193396 -321.612255 
L 221.05256 -321.156387 
L 218.911725 -320.684047 
L 216.770889 -320.214342 
L 214.630054 -319.764487 
L 212.489218 -319.34748 
L 210.348383 -318.970916 
L 208.207547 -318.637235 
L 206.066712 -318.345101 
L 203.925876 -318.091206 
L 201.785041 -317.871721 
L 199.644205 -317.682961 
L 197.50337 -317.52129 
L 195.362534 -317.382701 
L 193.221699 -317.26257 
L 191.080863 -317.155961 
L 188.940028 -317.058415 
L 186.799192 -316.966908 
L 184.658357 -316.880516 
L 182.517521 -316.800462 
L 180.376686 -316.729512 
L 178.23585 -316.670952 
L 176.095015 -316.627521 
L 173.954179 -316.60063 
L 171.813344 -316.590021 
L 169.672508 -316.593837 
L 167.531673 -316.608939 
L 165.390837 -316.631317 
L 163.250002 -316.656505 
L 161.109166 -316.679992 
L 158.968331 -316.69768 
L 156.827495 -316.706373 
L 154.68666 -316.704223 
L 152.545824 -316.690965 
L 150.404989 -316.667811 
L 148.264153 -316.636946 
L 146.123318 -316.60076 
L 143.982482 -316.561062 
L 141.841647 -316.518572 
L 139.700811 -316.472859 
L 137.559976 -316.422743 
L 135.41914 -316.366953 
L 133.278305 -316.304788 
L 131.137469 -316.236538 
L 128.996634 -316.163563 
L 126.855798 -316.088083 
L 124.714963 -316.01278 
L 122.574127 -315.940343 
L 120.433292 -315.873048 
L 118.292456 -315.812401 
L 116.151621 -315.758907 
L 114.010785 -315.712008 
L 111.86995 -315.670239 
L 109.729114 -315.631618 
L 107.588279 -315.594179 
L 105.447443 -315.556504 
z
" style="stroke: #000000; stroke-opacity: 0.5"/>
    </defs>
    <g clip-path="url(#p6650d425cf)">
     <use xlink:href="#ma32d74c0d6" x="0" y="392.514375" style="fill: #1f77b4; fill-opacity: 0.5; stroke: #000000; stroke-opacity: 0.5"/>
    </g>
   </g>
   <g id="PolyCollection_10">
    <defs>
     <path id="m810405c06e" d="M 105.447443 -347.618757 
L 105.447443 -346.617953 
L 107.307513 -346.56335 
L 109.167584 -346.512383 
L 111.027654 -346.466262 
L 112.887724 -346.425808 
L 114.747794 -346.391362 
L 116.607864 -346.362739 
L 118.467935 -346.339205 
L 120.328005 -346.319513 
L 122.188075 -346.301962 
L 124.048145 -346.284506 
L 125.908215 -346.26488 
L 127.768285 -346.240735 
L 129.628356 -346.209759 
L 131.488426 -346.169769 
L 133.348496 -346.118749 
L 135.208566 -346.054838 
L 137.068636 -345.976288 
L 138.928707 -345.881391 
L 140.788777 -345.768456 
L 142.648847 -345.635834 
L 144.508917 -345.48205 
L 146.368987 -345.306045 
L 148.229058 -345.107501 
L 150.089128 -344.887209 
L 151.949198 -344.647391 
L 153.809268 -344.391896 
L 155.669338 -344.126174 
L 157.529409 -343.85699 
L 159.389479 -343.591869 
L 161.249549 -343.338324 
L 163.109619 -343.103001 
L 164.969689 -342.890864 
L 166.829759 -342.704593 
L 168.68983 -342.54431 
L 170.5499 -342.407708 
L 172.40997 -342.290545 
L 174.27004 -342.187432 
L 176.13011 -342.092737 
L 177.990181 -342.001455 
L 179.850251 -341.909859 
L 181.710321 -341.815856 
L 183.570391 -341.718991 
L 185.430461 -341.620174 
L 187.290532 -341.521197 
L 189.150602 -341.424202 
L 191.010672 -341.331185 
L 192.870742 -341.243635 
L 194.730812 -341.16233 
L 196.590883 -341.087283 
L 198.450953 -341.01779 
L 200.311023 -340.952541 
L 202.171093 -340.88975 
L 204.031163 -340.827298 
L 205.891234 -340.762884 
L 207.751304 -340.694201 
L 209.611374 -340.619134 
L 211.471444 -340.535978 
L 213.331514 -340.443633 
L 215.191584 -340.34175 
L 217.051655 -340.230781 
L 218.911725 -340.11194 
L 220.771795 -339.98709 
L 222.631865 -339.858607 
L 224.491935 -339.729288 
L 226.352006 -339.602357 
L 228.212076 -339.481575 
L 230.072146 -339.371436 
L 231.932216 -339.277365 
L 233.792286 -339.205818 
L 235.652357 -339.164187 
L 237.512427 -339.160461 
L 239.372497 -339.202633 
L 241.232567 -339.297932 
L 243.092637 -339.451987 
L 244.952708 -339.66807 
L 246.812778 -339.94654 
L 248.672848 -340.284582 
L 250.532918 -340.676268 
L 252.392988 -341.112934 
L 254.253058 -341.583792 
L 256.113129 -342.076705 
L 257.973199 -342.579022 
L 259.833269 -343.078397 
L 261.693339 -343.563509 
L 263.553409 -344.024647 
L 265.41348 -344.454111 
L 267.27355 -344.846422 
L 269.13362 -345.198348 
L 270.99369 -345.508748 
L 272.85376 -345.778293 
L 274.713831 -346.009084 
L 276.573901 -346.204245 
L 278.433971 -346.367523 
L 280.294041 -346.502928 
L 282.154111 -346.61446 
L 284.014182 -346.705901 
L 285.874252 -346.780688 
L 287.734322 -346.841845 
L 289.594392 -346.891957 
L 289.594392 -347.344754 
L 289.594392 -347.344754 
L 287.734322 -347.394866 
L 285.874252 -347.456022 
L 284.014182 -347.530809 
L 282.154111 -347.622251 
L 280.294041 -347.733783 
L 278.433971 -347.869188 
L 276.573901 -348.032465 
L 274.713831 -348.227627 
L 272.85376 -348.458418 
L 270.99369 -348.727962 
L 269.13362 -349.038363 
L 267.27355 -349.390289 
L 265.41348 -349.7826 
L 263.553409 -350.212063 
L 261.693339 -350.673201 
L 259.833269 -351.158314 
L 257.973199 -351.657688 
L 256.113129 -352.160006 
L 254.253058 -352.652918 
L 252.392988 -353.123777 
L 250.532918 -353.560443 
L 248.672848 -353.952129 
L 246.812778 -354.29017 
L 244.952708 -354.568641 
L 243.092637 -354.784724 
L 241.232567 -354.938779 
L 239.372497 -355.034078 
L 237.512427 -355.07625 
L 235.652357 -355.072524 
L 233.792286 -355.030893 
L 231.932216 -354.959345 
L 230.072146 -354.865275 
L 228.212076 -354.755136 
L 226.352006 -354.634354 
L 224.491935 -354.507422 
L 222.631865 -354.378104 
L 220.771795 -354.24962 
L 218.911725 -354.12477 
L 217.051655 -354.00593 
L 215.191584 -353.894961 
L 213.331514 -353.793077 
L 211.471444 -353.700733 
L 209.611374 -353.617577 
L 207.751304 -353.542509 
L 205.891234 -353.473826 
L 204.031163 -353.409413 
L 202.171093 -353.346961 
L 200.311023 -353.28417 
L 198.450953 -353.218921 
L 196.590883 -353.149428 
L 194.730812 -353.074381 
L 192.870742 -352.993076 
L 191.010672 -352.905526 
L 189.150602 -352.812509 
L 187.290532 -352.715514 
L 185.430461 -352.616537 
L 183.570391 -352.517719 
L 181.710321 -352.420855 
L 179.850251 -352.326852 
L 177.990181 -352.235256 
L 176.13011 -352.143973 
L 174.27004 -352.049279 
L 172.40997 -351.946165 
L 170.5499 -351.829003 
L 168.68983 -351.692401 
L 166.829759 -351.532118 
L 164.969689 -351.345846 
L 163.109619 -351.133709 
L 161.249549 -350.898387 
L 159.389479 -350.644842 
L 157.529409 -350.37972 
L 155.669338 -350.110536 
L 153.809268 -349.844814 
L 151.949198 -349.589319 
L 150.089128 -349.349502 
L 148.229058 -349.129209 
L 146.368987 -348.930665 
L 144.508917 -348.75466 
L 142.648847 -348.600877 
L 140.788777 -348.468254 
L 138.928707 -348.355319 
L 137.068636 -348.260423 
L 135.208566 -348.181872 
L 133.348496 -348.117962 
L 131.488426 -348.066941 
L 129.628356 -348.026951 
L 127.768285 -347.995976 
L 125.908215 -347.97183 
L 124.048145 -347.952205 
L 122.188075 -347.934749 
L 120.328005 -347.917198 
L 118.467935 -347.897505 
L 116.607864 -347.873972 
L 114.747794 -347.845348 
L 112.887724 -347.810903 
L 111.027654 -347.770448 
L 109.167584 -347.724328 
L 107.307513 -347.67336 
L 105.447443 -347.618757 
z
" style="stroke: #000000; stroke-opacity: 0.5"/>
    </defs>
    <g clip-path="url(#p6650d425cf)">
     <use xlink:href="#m810405c06e" x="0" y="392.514375" style="fill: #1f77b4; fill-opacity: 0.5; stroke: #000000; stroke-opacity: 0.5"/>
    </g>
   </g>
   <g id="PathCollection_1">
    <defs>
     <path id="m8605529fcc" d="M 0 3 
C 0.795609 3 1.55874 2.683901 2.12132 2.12132 
C 2.683901 1.55874 3 0.795609 3 0 
C 3 -0.795609 2.683901 -1.55874 2.12132 -2.12132 
C 1.55874 -2.683901 0.795609 -3 0 -3 
C -0.795609 -3 -1.55874 -2.683901 -2.12132 -2.12132 
C -2.683901 -1.55874 -3 -0.795609 -3 0 
C -3 0.795609 -2.683901 1.55874 -2.12132 2.12132 
C -1.55874 2.683901 -0.795609 3 0 3 
z
" style="stroke: #4682b4"/>
    </defs>
    <g clip-path="url(#p6650d425cf)">
     <use xlink:href="#m8605529fcc" x="317.390158" y="331.88023" style="fill: #4682b4; stroke: #4682b4"/>
     <use xlink:href="#m8605529fcc" x="289.594392" y="300.048651" style="fill: #4682b4; stroke: #4682b4"/>
     <use xlink:href="#m8605529fcc" x="286.119921" y="268.217072" style="fill: #4682b4; stroke: #4682b4"/>
     <use xlink:href="#m8605529fcc" x="279.17098" y="236.385493" style="fill: #4682b4; stroke: #4682b4"/>
     <use xlink:href="#m8605529fcc" x="275.696509" y="204.553914" style="fill: #4682b4; stroke: #4682b4"/>
     <use xlink:href="#m8605529fcc" x="268.747568" y="172.722336" style="fill: #4682b4; stroke: #4682b4"/>
     <use xlink:href="#m8605529fcc" x="261.798626" y="140.890757" style="fill: #4682b4; stroke: #4682b4"/>
     <use xlink:href="#m8605529fcc" x="240.951802" y="109.059178" style="fill: #4682b4; stroke: #4682b4"/>
     <use xlink:href="#m8605529fcc" x="230.52839" y="77.227599" style="fill: #4682b4; stroke: #4682b4"/>
     <use xlink:href="#m8605529fcc" x="213.156036" y="45.39602" style="fill: #4682b4; stroke: #4682b4"/>
    </g>
   </g>
   <g id="matplotlib.axis_1">
    <g id="xtick_1">
     <g id="line2d_1">
      <defs>
       <path id="mb1a1754605" d="M 0 0 
L 0 3.5 
" style="stroke: #000000; stroke-width: 0.8"/>
      </defs>
      <g>
       <use xlink:href="#mb1a1754605" x="101.972972" y="354.958125" style="stroke: #000000; stroke-width: 0.8"/>
      </g>
     </g>
     <g id="text_1">
      <!-- 5000 -->
      <g transform="translate(89.247972 369.556562) scale(0.1 -0.1)">
       <defs>
        <path id="DejaVuSans-35" d="M 691 4666 
L 3169 4666 
L 3169 4134 
L 1269 4134 
L 1269 2991 
Q 1406 3038 1543 3061 
Q 1681 3084 1819 3084 
Q 2600 3084 3056 2656 
Q 3513 2228 3513 1497 
Q 3513 744 3044 326 
Q 2575 -91 1722 -91 
Q 1428 -91 1123 -41 
Q 819 9 494 109 
L 494 744 
Q 775 591 1075 516 
Q 1375 441 1709 441 
Q 2250 441 2565 725 
Q 2881 1009 2881 1497 
Q 2881 1984 2565 2268 
Q 2250 2553 1709 2553 
Q 1456 2553 1204 2497 
Q 953 2441 691 2322 
L 691 4666 
z
" transform="scale(0.015625)"/>
        <path id="DejaVuSans-30" d="M 2034 4250 
Q 1547 4250 1301 3770 
Q 1056 3291 1056 2328 
Q 1056 1369 1301 889 
Q 1547 409 2034 409 
Q 2525 409 2770 889 
Q 3016 1369 3016 2328 
Q 3016 3291 2770 3770 
Q 2525 4250 2034 4250 
z
M 2034 4750 
Q 2819 4750 3233 4129 
Q 3647 3509 3647 2328 
Q 3647 1150 3233 529 
Q 2819 -91 2034 -91 
Q 1250 -91 836 529 
Q 422 1150 422 2328 
Q 422 3509 836 4129 
Q 1250 4750 2034 4750 
z
" transform="scale(0.015625)"/>
       </defs>
       <use xlink:href="#DejaVuSans-35"/>
       <use xlink:href="#DejaVuSans-30" x="63.623047"/>
       <use xlink:href="#DejaVuSans-30" x="127.246094"/>
       <use xlink:href="#DejaVuSans-30" x="190.869141"/>
      </g>
     </g>
    </g>
    <g id="xtick_2">
     <g id="line2d_2">
      <g>
       <use xlink:href="#mb1a1754605" x="136.71768" y="354.958125" style="stroke: #000000; stroke-width: 0.8"/>
      </g>
     </g>
     <g id="text_2">
      <!-- 6000 -->
      <g transform="translate(123.99268 369.556562) scale(0.1 -0.1)">
       <defs>
        <path id="DejaVuSans-36" d="M 2113 2584 
Q 1688 2584 1439 2293 
Q 1191 2003 1191 1497 
Q 1191 994 1439 701 
Q 1688 409 2113 409 
Q 2538 409 2786 701 
Q 3034 994 3034 1497 
Q 3034 2003 2786 2293 
Q 2538 2584 2113 2584 
z
M 3366 4563 
L 3366 3988 
Q 3128 4100 2886 4159 
Q 2644 4219 2406 4219 
Q 1781 4219 1451 3797 
Q 1122 3375 1075 2522 
Q 1259 2794 1537 2939 
Q 1816 3084 2150 3084 
Q 2853 3084 3261 2657 
Q 3669 2231 3669 1497 
Q 3669 778 3244 343 
Q 2819 -91 2113 -91 
Q 1303 -91 875 529 
Q 447 1150 447 2328 
Q 447 3434 972 4092 
Q 1497 4750 2381 4750 
Q 2619 4750 2861 4703 
Q 3103 4656 3366 4563 
z
" transform="scale(0.015625)"/>
       </defs>
       <use xlink:href="#DejaVuSans-36"/>
       <use xlink:href="#DejaVuSans-30" x="63.623047"/>
       <use xlink:href="#DejaVuSans-30" x="127.246094"/>
       <use xlink:href="#DejaVuSans-30" x="190.869141"/>
      </g>
     </g>
    </g>
    <g id="xtick_3">
     <g id="line2d_3">
      <g>
       <use xlink:href="#mb1a1754605" x="171.462387" y="354.958125" style="stroke: #000000; stroke-width: 0.8"/>
      </g>
     </g>
     <g id="text_3">
      <!-- 7000 -->
      <g transform="translate(158.737387 369.556562) scale(0.1 -0.1)">
       <defs>
        <path id="DejaVuSans-37" d="M 525 4666 
L 3525 4666 
L 3525 4397 
L 1831 0 
L 1172 0 
L 2766 4134 
L 525 4134 
L 525 4666 
z
" transform="scale(0.015625)"/>
       </defs>
       <use xlink:href="#DejaVuSans-37"/>
       <use xlink:href="#DejaVuSans-30" x="63.623047"/>
       <use xlink:href="#DejaVuSans-30" x="127.246094"/>
       <use xlink:href="#DejaVuSans-30" x="190.869141"/>
      </g>
     </g>
    </g>
    <g id="xtick_4">
     <g id="line2d_4">
      <g>
       <use xlink:href="#mb1a1754605" x="206.207094" y="354.958125" style="stroke: #000000; stroke-width: 0.8"/>
      </g>
     </g>
     <g id="text_4">
      <!-- 8000 -->
      <g transform="translate(193.482094 369.556562) scale(0.1 -0.1)">
       <defs>
        <path id="DejaVuSans-38" d="M 2034 2216 
Q 1584 2216 1326 1975 
Q 1069 1734 1069 1313 
Q 1069 891 1326 650 
Q 1584 409 2034 409 
Q 2484 409 2743 651 
Q 3003 894 3003 1313 
Q 3003 1734 2745 1975 
Q 2488 2216 2034 2216 
z
M 1403 2484 
Q 997 2584 770 2862 
Q 544 3141 544 3541 
Q 544 4100 942 4425 
Q 1341 4750 2034 4750 
Q 2731 4750 3128 4425 
Q 3525 4100 3525 3541 
Q 3525 3141 3298 2862 
Q 3072 2584 2669 2484 
Q 3125 2378 3379 2068 
Q 3634 1759 3634 1313 
Q 3634 634 3220 271 
Q 2806 -91 2034 -91 
Q 1263 -91 848 271 
Q 434 634 434 1313 
Q 434 1759 690 2068 
Q 947 2378 1403 2484 
z
M 1172 3481 
Q 1172 3119 1398 2916 
Q 1625 2713 2034 2713 
Q 2441 2713 2670 2916 
Q 2900 3119 2900 3481 
Q 2900 3844 2670 4047 
Q 2441 4250 2034 4250 
Q 1625 4250 1398 4047 
Q 1172 3844 1172 3481 
z
" transform="scale(0.015625)"/>
       </defs>
       <use xlink:href="#DejaVuSans-38"/>
       <use xlink:href="#DejaVuSans-30" x="63.623047"/>
       <use xlink:href="#DejaVuSans-30" x="127.246094"/>
       <use xlink:href="#DejaVuSans-30" x="190.869141"/>
      </g>
     </g>
    </g>
    <g id="xtick_5">
     <g id="line2d_5">
      <g>
       <use xlink:href="#mb1a1754605" x="240.951802" y="354.958125" style="stroke: #000000; stroke-width: 0.8"/>
      </g>
     </g>
     <g id="text_5">
      <!-- 9000 -->
      <g transform="translate(228.226802 369.556562) scale(0.1 -0.1)">
       <defs>
        <path id="DejaVuSans-39" d="M 703 97 
L 703 672 
Q 941 559 1184 500 
Q 1428 441 1663 441 
Q 2288 441 2617 861 
Q 2947 1281 2994 2138 
Q 2813 1869 2534 1725 
Q 2256 1581 1919 1581 
Q 1219 1581 811 2004 
Q 403 2428 403 3163 
Q 403 3881 828 4315 
Q 1253 4750 1959 4750 
Q 2769 4750 3195 4129 
Q 3622 3509 3622 2328 
Q 3622 1225 3098 567 
Q 2575 -91 1691 -91 
Q 1453 -91 1209 -44 
Q 966 3 703 97 
z
M 1959 2075 
Q 2384 2075 2632 2365 
Q 2881 2656 2881 3163 
Q 2881 3666 2632 3958 
Q 2384 4250 1959 4250 
Q 1534 4250 1286 3958 
Q 1038 3666 1038 3163 
Q 1038 2656 1286 2365 
Q 1534 2075 1959 2075 
z
" transform="scale(0.015625)"/>
       </defs>
       <use xlink:href="#DejaVuSans-39"/>
       <use xlink:href="#DejaVuSans-30" x="63.623047"/>
       <use xlink:href="#DejaVuSans-30" x="127.246094"/>
       <use xlink:href="#DejaVuSans-30" x="190.869141"/>
      </g>
     </g>
    </g>
    <g id="xtick_6">
     <g id="line2d_6">
      <g>
       <use xlink:href="#mb1a1754605" x="275.696509" y="354.958125" style="stroke: #000000; stroke-width: 0.8"/>
      </g>
     </g>
     <g id="text_6">
      <!-- 10000 -->
      <g transform="translate(259.790259 369.556562) scale(0.1 -0.1)">
       <defs>
        <path id="DejaVuSans-31" d="M 794 531 
L 1825 531 
L 1825 4091 
L 703 3866 
L 703 4441 
L 1819 4666 
L 2450 4666 
L 2450 531 
L 3481 531 
L 3481 0 
L 794 0 
L 794 531 
z
" transform="scale(0.015625)"/>
       </defs>
       <use xlink:href="#DejaVuSans-31"/>
       <use xlink:href="#DejaVuSans-30" x="63.623047"/>
       <use xlink:href="#DejaVuSans-30" x="127.246094"/>
       <use xlink:href="#DejaVuSans-30" x="190.869141"/>
       <use xlink:href="#DejaVuSans-30" x="254.492188"/>
      </g>
     </g>
    </g>
    <g id="xtick_7">
     <g id="line2d_7">
      <g>
       <use xlink:href="#mb1a1754605" x="310.441217" y="354.958125" style="stroke: #000000; stroke-width: 0.8"/>
      </g>
     </g>
     <g id="text_7">
      <!-- 11000 -->
      <g transform="translate(294.534967 369.556562) scale(0.1 -0.1)">
       <use xlink:href="#DejaVuSans-31"/>
       <use xlink:href="#DejaVuSans-31" x="63.623047"/>
       <use xlink:href="#DejaVuSans-30" x="127.246094"/>
       <use xlink:href="#DejaVuSans-30" x="190.869141"/>
       <use xlink:href="#DejaVuSans-30" x="254.492188"/>
      </g>
     </g>
    </g>
    <g id="xtick_8">
     <g id="line2d_8">
      <g>
       <use xlink:href="#mb1a1754605" x="345.185924" y="354.958125" style="stroke: #000000; stroke-width: 0.8"/>
      </g>
     </g>
     <g id="text_8">
      <!-- 12000 -->
      <g transform="translate(329.279674 369.556562) scale(0.1 -0.1)">
       <defs>
        <path id="DejaVuSans-32" d="M 1228 531 
L 3431 531 
L 3431 0 
L 469 0 
L 469 531 
Q 828 903 1448 1529 
Q 2069 2156 2228 2338 
Q 2531 2678 2651 2914 
Q 2772 3150 2772 3378 
Q 2772 3750 2511 3984 
Q 2250 4219 1831 4219 
Q 1534 4219 1204 4116 
Q 875 4013 500 3803 
L 500 4441 
Q 881 4594 1212 4672 
Q 1544 4750 1819 4750 
Q 2544 4750 2975 4387 
Q 3406 4025 3406 3419 
Q 3406 3131 3298 2873 
Q 3191 2616 2906 2266 
Q 2828 2175 2409 1742 
Q 1991 1309 1228 531 
z
" transform="scale(0.015625)"/>
       </defs>
       <use xlink:href="#DejaVuSans-31"/>
       <use xlink:href="#DejaVuSans-32" x="63.623047"/>
       <use xlink:href="#DejaVuSans-30" x="127.246094"/>
       <use xlink:href="#DejaVuSans-30" x="190.869141"/>
       <use xlink:href="#DejaVuSans-30" x="254.492188"/>
      </g>
     </g>
    </g>
    <g id="text_9">
     <!-- Elevation (Feet) -->
     <g transform="translate(192.835156 383.234687) scale(0.1 -0.1)">
      <defs>
       <path id="DejaVuSans-45" d="M 628 4666 
L 3578 4666 
L 3578 4134 
L 1259 4134 
L 1259 2753 
L 3481 2753 
L 3481 2222 
L 1259 2222 
L 1259 531 
L 3634 531 
L 3634 0 
L 628 0 
L 628 4666 
z
" transform="scale(0.015625)"/>
       <path id="DejaVuSans-6c" d="M 603 4863 
L 1178 4863 
L 1178 0 
L 603 0 
L 603 4863 
z
" transform="scale(0.015625)"/>
       <path id="DejaVuSans-65" d="M 3597 1894 
L 3597 1613 
L 953 1613 
Q 991 1019 1311 708 
Q 1631 397 2203 397 
Q 2534 397 2845 478 
Q 3156 559 3463 722 
L 3463 178 
Q 3153 47 2828 -22 
Q 2503 -91 2169 -91 
Q 1331 -91 842 396 
Q 353 884 353 1716 
Q 353 2575 817 3079 
Q 1281 3584 2069 3584 
Q 2775 3584 3186 3129 
Q 3597 2675 3597 1894 
z
M 3022 2063 
Q 3016 2534 2758 2815 
Q 2500 3097 2075 3097 
Q 1594 3097 1305 2825 
Q 1016 2553 972 2059 
L 3022 2063 
z
" transform="scale(0.015625)"/>
       <path id="DejaVuSans-76" d="M 191 3500 
L 800 3500 
L 1894 563 
L 2988 3500 
L 3597 3500 
L 2284 0 
L 1503 0 
L 191 3500 
z
" transform="scale(0.015625)"/>
       <path id="DejaVuSans-61" d="M 2194 1759 
Q 1497 1759 1228 1600 
Q 959 1441 959 1056 
Q 959 750 1161 570 
Q 1363 391 1709 391 
Q 2188 391 2477 730 
Q 2766 1069 2766 1631 
L 2766 1759 
L 2194 1759 
z
M 3341 1997 
L 3341 0 
L 2766 0 
L 2766 531 
Q 2569 213 2275 61 
Q 1981 -91 1556 -91 
Q 1019 -91 701 211 
Q 384 513 384 1019 
Q 384 1609 779 1909 
Q 1175 2209 1959 2209 
L 2766 2209 
L 2766 2266 
Q 2766 2663 2505 2880 
Q 2244 3097 1772 3097 
Q 1472 3097 1187 3025 
Q 903 2953 641 2809 
L 641 3341 
Q 956 3463 1253 3523 
Q 1550 3584 1831 3584 
Q 2591 3584 2966 3190 
Q 3341 2797 3341 1997 
z
" transform="scale(0.015625)"/>
       <path id="DejaVuSans-74" d="M 1172 4494 
L 1172 3500 
L 2356 3500 
L 2356 3053 
L 1172 3053 
L 1172 1153 
Q 1172 725 1289 603 
Q 1406 481 1766 481 
L 2356 481 
L 2356 0 
L 1766 0 
Q 1100 0 847 248 
Q 594 497 594 1153 
L 594 3053 
L 172 3053 
L 172 3500 
L 594 3500 
L 594 4494 
L 1172 4494 
z
" transform="scale(0.015625)"/>
       <path id="DejaVuSans-69" d="M 603 3500 
L 1178 3500 
L 1178 0 
L 603 0 
L 603 3500 
z
M 603 4863 
L 1178 4863 
L 1178 4134 
L 603 4134 
L 603 4863 
z
" transform="scale(0.015625)"/>
       <path id="DejaVuSans-6f" d="M 1959 3097 
Q 1497 3097 1228 2736 
Q 959 2375 959 1747 
Q 959 1119 1226 758 
Q 1494 397 1959 397 
Q 2419 397 2687 759 
Q 2956 1122 2956 1747 
Q 2956 2369 2687 2733 
Q 2419 3097 1959 3097 
z
M 1959 3584 
Q 2709 3584 3137 3096 
Q 3566 2609 3566 1747 
Q 3566 888 3137 398 
Q 2709 -91 1959 -91 
Q 1206 -91 779 398 
Q 353 888 353 1747 
Q 353 2609 779 3096 
Q 1206 3584 1959 3584 
z
" transform="scale(0.015625)"/>
       <path id="DejaVuSans-6e" d="M 3513 2113 
L 3513 0 
L 2938 0 
L 2938 2094 
Q 2938 2591 2744 2837 
Q 2550 3084 2163 3084 
Q 1697 3084 1428 2787 
Q 1159 2491 1159 1978 
L 1159 0 
L 581 0 
L 581 3500 
L 1159 3500 
L 1159 2956 
Q 1366 3272 1645 3428 
Q 1925 3584 2291 3584 
Q 2894 3584 3203 3211 
Q 3513 2838 3513 2113 
z
" transform="scale(0.015625)"/>
       <path id="DejaVuSans-20" transform="scale(0.015625)"/>
       <path id="DejaVuSans-28" d="M 1984 4856 
Q 1566 4138 1362 3434 
Q 1159 2731 1159 2009 
Q 1159 1288 1364 580 
Q 1569 -128 1984 -844 
L 1484 -844 
Q 1016 -109 783 600 
Q 550 1309 550 2009 
Q 550 2706 781 3412 
Q 1013 4119 1484 4856 
L 1984 4856 
z
" transform="scale(0.015625)"/>
       <path id="DejaVuSans-46" d="M 628 4666 
L 3309 4666 
L 3309 4134 
L 1259 4134 
L 1259 2759 
L 3109 2759 
L 3109 2228 
L 1259 2228 
L 1259 0 
L 628 0 
L 628 4666 
z
" transform="scale(0.015625)"/>
       <path id="DejaVuSans-29" d="M 513 4856 
L 1013 4856 
Q 1481 4119 1714 3412 
Q 1947 2706 1947 2009 
Q 1947 1309 1714 600 
Q 1481 -109 1013 -844 
L 513 -844 
Q 928 -128 1133 580 
Q 1338 1288 1338 2009 
Q 1338 2731 1133 3434 
Q 928 4138 513 4856 
z
" transform="scale(0.015625)"/>
      </defs>
      <use xlink:href="#DejaVuSans-45"/>
      <use xlink:href="#DejaVuSans-6c" x="63.183594"/>
      <use xlink:href="#DejaVuSans-65" x="90.966797"/>
      <use xlink:href="#DejaVuSans-76" x="152.490234"/>
      <use xlink:href="#DejaVuSans-61" x="211.669922"/>
      <use xlink:href="#DejaVuSans-74" x="272.949219"/>
      <use xlink:href="#DejaVuSans-69" x="312.158203"/>
      <use xlink:href="#DejaVuSans-6f" x="339.941406"/>
      <use xlink:href="#DejaVuSans-6e" x="401.123047"/>
      <use xlink:href="#DejaVuSans-20" x="464.501953"/>
      <use xlink:href="#DejaVuSans-28" x="496.289062"/>
      <use xlink:href="#DejaVuSans-46" x="535.302734"/>
      <use xlink:href="#DejaVuSans-65" x="587.322266"/>
      <use xlink:href="#DejaVuSans-65" x="648.845703"/>
      <use xlink:href="#DejaVuSans-74" x="710.369141"/>
      <use xlink:href="#DejaVuSans-29" x="749.578125"/>
     </g>
    </g>
   </g>
   <g id="matplotlib.axis_2">
    <g id="ytick_1">
     <g id="line2d_9"/>
     <g id="text_10">
      <!-- Moab (214) -->
      <g transform="translate(31.973438 335.679449) scale(0.1 -0.1)">
       <defs>
        <path id="DejaVuSans-4d" d="M 628 4666 
L 1569 4666 
L 2759 1491 
L 3956 4666 
L 4897 4666 
L 4897 0 
L 4281 0 
L 4281 4097 
L 3078 897 
L 2444 897 
L 1241 4097 
L 1241 0 
L 628 0 
L 628 4666 
z
" transform="scale(0.015625)"/>
        <path id="DejaVuSans-62" d="M 3116 1747 
Q 3116 2381 2855 2742 
Q 2594 3103 2138 3103 
Q 1681 3103 1420 2742 
Q 1159 2381 1159 1747 
Q 1159 1113 1420 752 
Q 1681 391 2138 391 
Q 2594 391 2855 752 
Q 3116 1113 3116 1747 
z
M 1159 2969 
Q 1341 3281 1617 3432 
Q 1894 3584 2278 3584 
Q 2916 3584 3314 3078 
Q 3713 2572 3713 1747 
Q 3713 922 3314 415 
Q 2916 -91 2278 -91 
Q 1894 -91 1617 61 
Q 1341 213 1159 525 
L 1159 0 
L 581 0 
L 581 4863 
L 1159 4863 
L 1159 2969 
z
" transform="scale(0.015625)"/>
        <path id="DejaVuSans-34" d="M 2419 4116 
L 825 1625 
L 2419 1625 
L 2419 4116 
z
M 2253 4666 
L 3047 4666 
L 3047 1625 
L 3713 1625 
L 3713 1100 
L 3047 1100 
L 3047 0 
L 2419 0 
L 2419 1100 
L 313 1100 
L 313 1709 
L 2253 4666 
z
" transform="scale(0.015625)"/>
       </defs>
       <use xlink:href="#DejaVuSans-4d"/>
       <use xlink:href="#DejaVuSans-6f" x="86.279297"/>
       <use xlink:href="#DejaVuSans-61" x="147.460938"/>
       <use xlink:href="#DejaVuSans-62" x="208.740234"/>
       <use xlink:href="#DejaVuSans-20" x="272.216797"/>
       <use xlink:href="#DejaVuSans-28" x="304.003906"/>
       <use xlink:href="#DejaVuSans-32" x="343.017578"/>
       <use xlink:href="#DejaVuSans-31" x="406.640625"/>
       <use xlink:href="#DejaVuSans-34" x="470.263672"/>
       <use xlink:href="#DejaVuSans-29" x="533.886719"/>
      </g>
     </g>
    </g>
    <g id="ytick_2">
     <g id="line2d_10"/>
     <g id="text_11">
      <!-- Southwest (32) -->
      <g transform="translate(13.035938 303.84787) scale(0.1 -0.1)">
       <defs>
        <path id="DejaVuSans-53" d="M 3425 4513 
L 3425 3897 
Q 3066 4069 2747 4153 
Q 2428 4238 2131 4238 
Q 1616 4238 1336 4038 
Q 1056 3838 1056 3469 
Q 1056 3159 1242 3001 
Q 1428 2844 1947 2747 
L 2328 2669 
Q 3034 2534 3370 2195 
Q 3706 1856 3706 1288 
Q 3706 609 3251 259 
Q 2797 -91 1919 -91 
Q 1588 -91 1214 -16 
Q 841 59 441 206 
L 441 856 
Q 825 641 1194 531 
Q 1563 422 1919 422 
Q 2459 422 2753 634 
Q 3047 847 3047 1241 
Q 3047 1584 2836 1778 
Q 2625 1972 2144 2069 
L 1759 2144 
Q 1053 2284 737 2584 
Q 422 2884 422 3419 
Q 422 4038 858 4394 
Q 1294 4750 2059 4750 
Q 2388 4750 2728 4690 
Q 3069 4631 3425 4513 
z
" transform="scale(0.015625)"/>
        <path id="DejaVuSans-75" d="M 544 1381 
L 544 3500 
L 1119 3500 
L 1119 1403 
Q 1119 906 1312 657 
Q 1506 409 1894 409 
Q 2359 409 2629 706 
Q 2900 1003 2900 1516 
L 2900 3500 
L 3475 3500 
L 3475 0 
L 2900 0 
L 2900 538 
Q 2691 219 2414 64 
Q 2138 -91 1772 -91 
Q 1169 -91 856 284 
Q 544 659 544 1381 
z
M 1991 3584 
L 1991 3584 
z
" transform="scale(0.015625)"/>
        <path id="DejaVuSans-68" d="M 3513 2113 
L 3513 0 
L 2938 0 
L 2938 2094 
Q 2938 2591 2744 2837 
Q 2550 3084 2163 3084 
Q 1697 3084 1428 2787 
Q 1159 2491 1159 1978 
L 1159 0 
L 581 0 
L 581 4863 
L 1159 4863 
L 1159 2956 
Q 1366 3272 1645 3428 
Q 1925 3584 2291 3584 
Q 2894 3584 3203 3211 
Q 3513 2838 3513 2113 
z
" transform="scale(0.015625)"/>
        <path id="DejaVuSans-77" d="M 269 3500 
L 844 3500 
L 1563 769 
L 2278 3500 
L 2956 3500 
L 3675 769 
L 4391 3500 
L 4966 3500 
L 4050 0 
L 3372 0 
L 2619 2869 
L 1863 0 
L 1184 0 
L 269 3500 
z
" transform="scale(0.015625)"/>
        <path id="DejaVuSans-73" d="M 2834 3397 
L 2834 2853 
Q 2591 2978 2328 3040 
Q 2066 3103 1784 3103 
Q 1356 3103 1142 2972 
Q 928 2841 928 2578 
Q 928 2378 1081 2264 
Q 1234 2150 1697 2047 
L 1894 2003 
Q 2506 1872 2764 1633 
Q 3022 1394 3022 966 
Q 3022 478 2636 193 
Q 2250 -91 1575 -91 
Q 1294 -91 989 -36 
Q 684 19 347 128 
L 347 722 
Q 666 556 975 473 
Q 1284 391 1588 391 
Q 1994 391 2212 530 
Q 2431 669 2431 922 
Q 2431 1156 2273 1281 
Q 2116 1406 1581 1522 
L 1381 1569 
Q 847 1681 609 1914 
Q 372 2147 372 2553 
Q 372 3047 722 3315 
Q 1072 3584 1716 3584 
Q 2034 3584 2315 3537 
Q 2597 3491 2834 3397 
z
" transform="scale(0.015625)"/>
        <path id="DejaVuSans-33" d="M 2597 2516 
Q 3050 2419 3304 2112 
Q 3559 1806 3559 1356 
Q 3559 666 3084 287 
Q 2609 -91 1734 -91 
Q 1441 -91 1130 -33 
Q 819 25 488 141 
L 488 750 
Q 750 597 1062 519 
Q 1375 441 1716 441 
Q 2309 441 2620 675 
Q 2931 909 2931 1356 
Q 2931 1769 2642 2001 
Q 2353 2234 1838 2234 
L 1294 2234 
L 1294 2753 
L 1863 2753 
Q 2328 2753 2575 2939 
Q 2822 3125 2822 3475 
Q 2822 3834 2567 4026 
Q 2313 4219 1838 4219 
Q 1578 4219 1281 4162 
Q 984 4106 628 3988 
L 628 4550 
Q 988 4650 1302 4700 
Q 1616 4750 1894 4750 
Q 2613 4750 3031 4423 
Q 3450 4097 3450 3541 
Q 3450 3153 3228 2886 
Q 3006 2619 2597 2516 
z
" transform="scale(0.015625)"/>
       </defs>
       <use xlink:href="#DejaVuSans-53"/>
       <use xlink:href="#DejaVuSans-6f" x="63.476562"/>
       <use xlink:href="#DejaVuSans-75" x="124.658203"/>
       <use xlink:href="#DejaVuSans-74" x="188.037109"/>
       <use xlink:href="#DejaVuSans-68" x="227.246094"/>
       <use xlink:href="#DejaVuSans-77" x="290.625"/>
       <use xlink:href="#DejaVuSans-65" x="372.412109"/>
       <use xlink:href="#DejaVuSans-73" x="433.935547"/>
       <use xlink:href="#DejaVuSans-74" x="486.035156"/>
       <use xlink:href="#DejaVuSans-20" x="525.244141"/>
       <use xlink:href="#DejaVuSans-28" x="557.03125"/>
       <use xlink:href="#DejaVuSans-33" x="596.044922"/>
       <use xlink:href="#DejaVuSans-32" x="659.667969"/>
       <use xlink:href="#DejaVuSans-29" x="723.291016"/>
      </g>
     </g>
    </g>
    <g id="ytick_3">
     <g id="line2d_11"/>
     <g id="text_12">
      <!-- Abajos (14) -->
      <g transform="translate(32.135938 272.016291) scale(0.1 -0.1)">
       <defs>
        <path id="DejaVuSans-41" d="M 2188 4044 
L 1331 1722 
L 3047 1722 
L 2188 4044 
z
M 1831 4666 
L 2547 4666 
L 4325 0 
L 3669 0 
L 3244 1197 
L 1141 1197 
L 716 0 
L 50 0 
L 1831 4666 
z
" transform="scale(0.015625)"/>
        <path id="DejaVuSans-6a" d="M 603 3500 
L 1178 3500 
L 1178 -63 
Q 1178 -731 923 -1031 
Q 669 -1331 103 -1331 
L -116 -1331 
L -116 -844 
L 38 -844 
Q 366 -844 484 -692 
Q 603 -541 603 -63 
L 603 3500 
z
M 603 4863 
L 1178 4863 
L 1178 4134 
L 603 4134 
L 603 4863 
z
" transform="scale(0.015625)"/>
       </defs>
       <use xlink:href="#DejaVuSans-41"/>
       <use xlink:href="#DejaVuSans-62" x="68.408203"/>
       <use xlink:href="#DejaVuSans-61" x="131.884766"/>
       <use xlink:href="#DejaVuSans-6a" x="193.164062"/>
       <use xlink:href="#DejaVuSans-6f" x="220.947266"/>
       <use xlink:href="#DejaVuSans-73" x="282.128906"/>
       <use xlink:href="#DejaVuSans-20" x="334.228516"/>
       <use xlink:href="#DejaVuSans-28" x="366.015625"/>
       <use xlink:href="#DejaVuSans-31" x="405.029297"/>
       <use xlink:href="#DejaVuSans-34" x="468.652344"/>
       <use xlink:href="#DejaVuSans-29" x="532.275391"/>
      </g>
     </g>
    </g>
    <g id="ytick_4">
     <g id="line2d_12"/>
     <g id="text_13">
      <!-- Uintas (559) -->
      <g transform="translate(27.504688 240.184712) scale(0.1 -0.1)">
       <defs>
        <path id="DejaVuSans-55" d="M 556 4666 
L 1191 4666 
L 1191 1831 
Q 1191 1081 1462 751 
Q 1734 422 2344 422 
Q 2950 422 3222 751 
Q 3494 1081 3494 1831 
L 3494 4666 
L 4128 4666 
L 4128 1753 
Q 4128 841 3676 375 
Q 3225 -91 2344 -91 
Q 1459 -91 1007 375 
Q 556 841 556 1753 
L 556 4666 
z
" transform="scale(0.015625)"/>
       </defs>
       <use xlink:href="#DejaVuSans-55"/>
       <use xlink:href="#DejaVuSans-69" x="73.193359"/>
       <use xlink:href="#DejaVuSans-6e" x="100.976562"/>
       <use xlink:href="#DejaVuSans-74" x="164.355469"/>
       <use xlink:href="#DejaVuSans-61" x="203.564453"/>
       <use xlink:href="#DejaVuSans-73" x="264.84375"/>
       <use xlink:href="#DejaVuSans-20" x="316.943359"/>
       <use xlink:href="#DejaVuSans-28" x="348.730469"/>
       <use xlink:href="#DejaVuSans-35" x="387.744141"/>
       <use xlink:href="#DejaVuSans-35" x="451.367188"/>
       <use xlink:href="#DejaVuSans-39" x="514.990234"/>
       <use xlink:href="#DejaVuSans-29" x="578.613281"/>
      </g>
     </g>
    </g>
    <g id="ytick_5">
     <g id="line2d_13"/>
     <g id="text_14">
      <!-- Skyline (389) -->
      <g transform="translate(23.454688 208.353133) scale(0.1 -0.1)">
       <defs>
        <path id="DejaVuSans-6b" d="M 581 4863 
L 1159 4863 
L 1159 1991 
L 2875 3500 
L 3609 3500 
L 1753 1863 
L 3688 0 
L 2938 0 
L 1159 1709 
L 1159 0 
L 581 0 
L 581 4863 
z
" transform="scale(0.015625)"/>
        <path id="DejaVuSans-79" d="M 2059 -325 
Q 1816 -950 1584 -1140 
Q 1353 -1331 966 -1331 
L 506 -1331 
L 506 -850 
L 844 -850 
Q 1081 -850 1212 -737 
Q 1344 -625 1503 -206 
L 1606 56 
L 191 3500 
L 800 3500 
L 1894 763 
L 2988 3500 
L 3597 3500 
L 2059 -325 
z
" transform="scale(0.015625)"/>
       </defs>
       <use xlink:href="#DejaVuSans-53"/>
       <use xlink:href="#DejaVuSans-6b" x="63.476562"/>
       <use xlink:href="#DejaVuSans-79" x="117.761719"/>
       <use xlink:href="#DejaVuSans-6c" x="176.941406"/>
       <use xlink:href="#DejaVuSans-69" x="204.724609"/>
       <use xlink:href="#DejaVuSans-6e" x="232.507812"/>
       <use xlink:href="#DejaVuSans-65" x="295.886719"/>
       <use xlink:href="#DejaVuSans-20" x="357.410156"/>
       <use xlink:href="#DejaVuSans-28" x="389.197266"/>
       <use xlink:href="#DejaVuSans-33" x="428.210938"/>
       <use xlink:href="#DejaVuSans-38" x="491.833984"/>
       <use xlink:href="#DejaVuSans-39" x="555.457031"/>
       <use xlink:href="#DejaVuSans-29" x="619.080078"/>
      </g>
     </g>
    </g>
    <g id="ytick_6">
     <g id="line2d_14"/>
     <g id="text_15">
      <!-- Salt Lake (3645) -->
      <g transform="translate(7.2 176.521554) scale(0.1 -0.1)">
       <defs>
        <path id="DejaVuSans-4c" d="M 628 4666 
L 1259 4666 
L 1259 531 
L 3531 531 
L 3531 0 
L 628 0 
L 628 4666 
z
" transform="scale(0.015625)"/>
       </defs>
       <use xlink:href="#DejaVuSans-53"/>
       <use xlink:href="#DejaVuSans-61" x="63.476562"/>
       <use xlink:href="#DejaVuSans-6c" x="124.755859"/>
       <use xlink:href="#DejaVuSans-74" x="152.539062"/>
       <use xlink:href="#DejaVuSans-20" x="191.748047"/>
       <use xlink:href="#DejaVuSans-4c" x="223.535156"/>
       <use xlink:href="#DejaVuSans-61" x="279.248047"/>
       <use xlink:href="#DejaVuSans-6b" x="340.527344"/>
       <use xlink:href="#DejaVuSans-65" x="394.8125"/>
       <use xlink:href="#DejaVuSans-20" x="456.335938"/>
       <use xlink:href="#DejaVuSans-28" x="488.123047"/>
       <use xlink:href="#DejaVuSans-33" x="527.136719"/>
       <use xlink:href="#DejaVuSans-36" x="590.759766"/>
       <use xlink:href="#DejaVuSans-34" x="654.382812"/>
       <use xlink:href="#DejaVuSans-35" x="718.005859"/>
       <use xlink:href="#DejaVuSans-29" x="781.628906"/>
      </g>
     </g>
    </g>
    <g id="ytick_7">
     <g id="line2d_15"/>
     <g id="text_16">
      <!-- Provo (468) -->
      <g transform="translate(31.3 144.689975) scale(0.1 -0.1)">
       <defs>
        <path id="DejaVuSans-50" d="M 1259 4147 
L 1259 2394 
L 2053 2394 
Q 2494 2394 2734 2622 
Q 2975 2850 2975 3272 
Q 2975 3691 2734 3919 
Q 2494 4147 2053 4147 
L 1259 4147 
z
M 628 4666 
L 2053 4666 
Q 2838 4666 3239 4311 
Q 3641 3956 3641 3272 
Q 3641 2581 3239 2228 
Q 2838 1875 2053 1875 
L 1259 1875 
L 1259 0 
L 628 0 
L 628 4666 
z
" transform="scale(0.015625)"/>
        <path id="DejaVuSans-72" d="M 2631 2963 
Q 2534 3019 2420 3045 
Q 2306 3072 2169 3072 
Q 1681 3072 1420 2755 
Q 1159 2438 1159 1844 
L 1159 0 
L 581 0 
L 581 3500 
L 1159 3500 
L 1159 2956 
Q 1341 3275 1631 3429 
Q 1922 3584 2338 3584 
Q 2397 3584 2469 3576 
Q 2541 3569 2628 3553 
L 2631 2963 
z
" transform="scale(0.015625)"/>
       </defs>
       <use xlink:href="#DejaVuSans-50"/>
       <use xlink:href="#DejaVuSans-72" x="58.552734"/>
       <use xlink:href="#DejaVuSans-6f" x="97.416016"/>
       <use xlink:href="#DejaVuSans-76" x="158.597656"/>
       <use xlink:href="#DejaVuSans-6f" x="217.777344"/>
       <use xlink:href="#DejaVuSans-20" x="278.958984"/>
       <use xlink:href="#DejaVuSans-28" x="310.746094"/>
       <use xlink:href="#DejaVuSans-34" x="349.759766"/>
       <use xlink:href="#DejaVuSans-36" x="413.382812"/>
       <use xlink:href="#DejaVuSans-38" x="477.005859"/>
       <use xlink:href="#DejaVuSans-29" x="540.628906"/>
      </g>
     </g>
    </g>
    <g id="ytick_8">
     <g id="line2d_16"/>
     <g id="text_17">
      <!-- SE Idaho (28) -->
      <g transform="translate(21.83125 112.858396) scale(0.1 -0.1)">
       <defs>
        <path id="DejaVuSans-49" d="M 628 4666 
L 1259 4666 
L 1259 0 
L 628 0 
L 628 4666 
z
" transform="scale(0.015625)"/>
        <path id="DejaVuSans-64" d="M 2906 2969 
L 2906 4863 
L 3481 4863 
L 3481 0 
L 2906 0 
L 2906 525 
Q 2725 213 2448 61 
Q 2172 -91 1784 -91 
Q 1150 -91 751 415 
Q 353 922 353 1747 
Q 353 2572 751 3078 
Q 1150 3584 1784 3584 
Q 2172 3584 2448 3432 
Q 2725 3281 2906 2969 
z
M 947 1747 
Q 947 1113 1208 752 
Q 1469 391 1925 391 
Q 2381 391 2643 752 
Q 2906 1113 2906 1747 
Q 2906 2381 2643 2742 
Q 2381 3103 1925 3103 
Q 1469 3103 1208 2742 
Q 947 2381 947 1747 
z
" transform="scale(0.015625)"/>
       </defs>
       <use xlink:href="#DejaVuSans-53"/>
       <use xlink:href="#DejaVuSans-45" x="63.476562"/>
       <use xlink:href="#DejaVuSans-20" x="126.660156"/>
       <use xlink:href="#DejaVuSans-49" x="158.447266"/>
       <use xlink:href="#DejaVuSans-64" x="187.939453"/>
       <use xlink:href="#DejaVuSans-61" x="251.416016"/>
       <use xlink:href="#DejaVuSans-68" x="312.695312"/>
       <use xlink:href="#DejaVuSans-6f" x="376.074219"/>
       <use xlink:href="#DejaVuSans-20" x="437.255859"/>
       <use xlink:href="#DejaVuSans-28" x="469.042969"/>
       <use xlink:href="#DejaVuSans-32" x="508.056641"/>
       <use xlink:href="#DejaVuSans-38" x="571.679688"/>
       <use xlink:href="#DejaVuSans-29" x="635.302734"/>
      </g>
     </g>
    </g>
    <g id="ytick_9">
     <g id="line2d_17"/>
     <g id="text_18">
      <!-- Logan (942) -->
      <g transform="translate(28.867188 81.026817) scale(0.1 -0.1)">
       <defs>
        <path id="DejaVuSans-67" d="M 2906 1791 
Q 2906 2416 2648 2759 
Q 2391 3103 1925 3103 
Q 1463 3103 1205 2759 
Q 947 2416 947 1791 
Q 947 1169 1205 825 
Q 1463 481 1925 481 
Q 2391 481 2648 825 
Q 2906 1169 2906 1791 
z
M 3481 434 
Q 3481 -459 3084 -895 
Q 2688 -1331 1869 -1331 
Q 1566 -1331 1297 -1286 
Q 1028 -1241 775 -1147 
L 775 -588 
Q 1028 -725 1275 -790 
Q 1522 -856 1778 -856 
Q 2344 -856 2625 -561 
Q 2906 -266 2906 331 
L 2906 616 
Q 2728 306 2450 153 
Q 2172 0 1784 0 
Q 1141 0 747 490 
Q 353 981 353 1791 
Q 353 2603 747 3093 
Q 1141 3584 1784 3584 
Q 2172 3584 2450 3431 
Q 2728 3278 2906 2969 
L 2906 3500 
L 3481 3500 
L 3481 434 
z
" transform="scale(0.015625)"/>
       </defs>
       <use xlink:href="#DejaVuSans-4c"/>
       <use xlink:href="#DejaVuSans-6f" x="53.962891"/>
       <use xlink:href="#DejaVuSans-67" x="115.144531"/>
       <use xlink:href="#DejaVuSans-61" x="178.621094"/>
       <use xlink:href="#DejaVuSans-6e" x="239.900391"/>
       <use xlink:href="#DejaVuSans-20" x="303.279297"/>
       <use xlink:href="#DejaVuSans-28" x="335.066406"/>
       <use xlink:href="#DejaVuSans-39" x="374.080078"/>
       <use xlink:href="#DejaVuSans-34" x="437.703125"/>
       <use xlink:href="#DejaVuSans-32" x="501.326172"/>
       <use xlink:href="#DejaVuSans-29" x="564.949219"/>
      </g>
     </g>
    </g>
    <g id="ytick_10">
     <g id="line2d_18"/>
     <g id="text_19">
      <!-- Ogden (362) -->
      <g transform="translate(26.1375 49.195238) scale(0.1 -0.1)">
       <defs>
        <path id="DejaVuSans-4f" d="M 2522 4238 
Q 1834 4238 1429 3725 
Q 1025 3213 1025 2328 
Q 1025 1447 1429 934 
Q 1834 422 2522 422 
Q 3209 422 3611 934 
Q 4013 1447 4013 2328 
Q 4013 3213 3611 3725 
Q 3209 4238 2522 4238 
z
M 2522 4750 
Q 3503 4750 4090 4092 
Q 4678 3434 4678 2328 
Q 4678 1225 4090 567 
Q 3503 -91 2522 -91 
Q 1538 -91 948 565 
Q 359 1222 359 2328 
Q 359 3434 948 4092 
Q 1538 4750 2522 4750 
z
" transform="scale(0.015625)"/>
       </defs>
       <use xlink:href="#DejaVuSans-4f"/>
       <use xlink:href="#DejaVuSans-67" x="78.710938"/>
       <use xlink:href="#DejaVuSans-64" x="142.1875"/>
       <use xlink:href="#DejaVuSans-65" x="205.664062"/>
       <use xlink:href="#DejaVuSans-6e" x="267.1875"/>
       <use xlink:href="#DejaVuSans-20" x="330.566406"/>
       <use xlink:href="#DejaVuSans-28" x="362.353516"/>
       <use xlink:href="#DejaVuSans-33" x="401.367188"/>
       <use xlink:href="#DejaVuSans-36" x="464.990234"/>
       <use xlink:href="#DejaVuSans-32" x="528.613281"/>
       <use xlink:href="#DejaVuSans-29" x="592.236328"/>
      </g>
     </g>
    </g>
   </g>
   <g id="patch_3">
    <path d="M 92.765625 354.958125 
L 371.765625 354.958125 
" style="fill: none; stroke: #000000; stroke-width: 0.8; stroke-linejoin: miter; stroke-linecap: square"/>
   </g>
   <g id="text_20">
    <!-- Avalanche Elevation Distribution by Region -->
    <g transform="translate(102.944063 16.318125) scale(0.12 -0.12)">
     <defs>
      <path id="DejaVuSans-63" d="M 3122 3366 
L 3122 2828 
Q 2878 2963 2633 3030 
Q 2388 3097 2138 3097 
Q 1578 3097 1268 2742 
Q 959 2388 959 1747 
Q 959 1106 1268 751 
Q 1578 397 2138 397 
Q 2388 397 2633 464 
Q 2878 531 3122 666 
L 3122 134 
Q 2881 22 2623 -34 
Q 2366 -91 2075 -91 
Q 1284 -91 818 406 
Q 353 903 353 1747 
Q 353 2603 823 3093 
Q 1294 3584 2113 3584 
Q 2378 3584 2631 3529 
Q 2884 3475 3122 3366 
z
" transform="scale(0.015625)"/>
      <path id="DejaVuSans-44" d="M 1259 4147 
L 1259 519 
L 2022 519 
Q 2988 519 3436 956 
Q 3884 1394 3884 2338 
Q 3884 3275 3436 3711 
Q 2988 4147 2022 4147 
L 1259 4147 
z
M 628 4666 
L 1925 4666 
Q 3281 4666 3915 4102 
Q 4550 3538 4550 2338 
Q 4550 1131 3912 565 
Q 3275 0 1925 0 
L 628 0 
L 628 4666 
z
" transform="scale(0.015625)"/>
      <path id="DejaVuSans-52" d="M 2841 2188 
Q 3044 2119 3236 1894 
Q 3428 1669 3622 1275 
L 4263 0 
L 3584 0 
L 2988 1197 
Q 2756 1666 2539 1819 
Q 2322 1972 1947 1972 
L 1259 1972 
L 1259 0 
L 628 0 
L 628 4666 
L 2053 4666 
Q 2853 4666 3247 4331 
Q 3641 3997 3641 3322 
Q 3641 2881 3436 2590 
Q 3231 2300 2841 2188 
z
M 1259 4147 
L 1259 2491 
L 2053 2491 
Q 2509 2491 2742 2702 
Q 2975 2913 2975 3322 
Q 2975 3731 2742 3939 
Q 2509 4147 2053 4147 
L 1259 4147 
z
" transform="scale(0.015625)"/>
     </defs>
     <use xlink:href="#DejaVuSans-41"/>
     <use xlink:href="#DejaVuSans-76" x="62.533203"/>
     <use xlink:href="#DejaVuSans-61" x="121.712891"/>
     <use xlink:href="#DejaVuSans-6c" x="182.992188"/>
     <use xlink:href="#DejaVuSans-61" x="210.775391"/>
     <use xlink:href="#DejaVuSans-6e" x="272.054688"/>
     <use xlink:href="#DejaVuSans-63" x="335.433594"/>
     <use xlink:href="#DejaVuSans-68" x="390.414062"/>
     <use xlink:href="#DejaVuSans-65" x="453.792969"/>
     <use xlink:href="#DejaVuSans-20" x="515.316406"/>
     <use xlink:href="#DejaVuSans-45" x="547.103516"/>
     <use xlink:href="#DejaVuSans-6c" x="610.287109"/>
     <use xlink:href="#DejaVuSans-65" x="638.070312"/>
     <use xlink:href="#DejaVuSans-76" x="699.59375"/>
     <use xlink:href="#DejaVuSans-61" x="758.773438"/>
     <use xlink:href="#DejaVuSans-74" x="820.052734"/>
     <use xlink:href="#DejaVuSans-69" x="859.261719"/>
     <use xlink:href="#DejaVuSans-6f" x="887.044922"/>
     <use xlink:href="#DejaVuSans-6e" x="948.226562"/>
     <use xlink:href="#DejaVuSans-20" x="1011.605469"/>
     <use xlink:href="#DejaVuSans-44" x="1043.392578"/>
     <use xlink:href="#DejaVuSans-69" x="1120.394531"/>
     <use xlink:href="#DejaVuSans-73" x="1148.177734"/>
     <use xlink:href="#DejaVuSans-74" x="1200.277344"/>
     <use xlink:href="#DejaVuSans-72" x="1239.486328"/>
     <use xlink:href="#DejaVuSans-69" x="1280.599609"/>
     <use xlink:href="#DejaVuSans-62" x="1308.382812"/>
     <use xlink:href="#DejaVuSans-75" x="1371.859375"/>
     <use xlink:href="#DejaVuSans-74" x="1435.238281"/>
     <use xlink:href="#DejaVuSans-69" x="1474.447266"/>
     <use xlink:href="#DejaVuSans-6f" x="1502.230469"/>
     <use xlink:href="#DejaVuSans-6e" x="1563.412109"/>
     <use xlink:href="#DejaVuSans-20" x="1626.791016"/>
     <use xlink:href="#DejaVuSans-62" x="1658.578125"/>
     <use xlink:href="#DejaVuSans-79" x="1722.054688"/>
     <use xlink:href="#DejaVuSans-20" x="1781.234375"/>
     <use xlink:href="#DejaVuSans-52" x="1813.021484"/>
     <use xlink:href="#DejaVuSans-65" x="1878.003906"/>
     <use xlink:href="#DejaVuSans-67" x="1939.527344"/>
     <use xlink:href="#DejaVuSans-69" x="2003.003906"/>
     <use xlink:href="#DejaVuSans-6f" x="2030.787109"/>
     <use xlink:href="#DejaVuSans-6e" x="2091.96875"/>
    </g>
   </g>
  </g>
 </g>
 <defs>
  <clipPath id="p6650d425cf">
   <rect x="92.765625" y="22.318125" width="279" height="332.64"/>
  </clipPath>
 </defs>
</svg>
